<svg width="24" height="24" viewBox="0 0 24 24" fill="none" xmlns="http://www.w3.org/2000/svg">
<g clip-path="url(#clip0_9703_163364)">
<path d="M20 6H8C7.46957 6 6.96089 6.21071 6.58582 6.58578C6.21074 6.96086 6 7.46957 6 8C5.46957 8 4.96086 8.21071 4.58578 8.58578C4.21071 8.96086 4 9.46957 4 10C3.46957 10 2.96086 10.2107 2.58578 10.5858C2.21071 10.9609 2 11.4696 2 12V16C2 16.5304 2.21071 17.0391 2.58578 17.4142C2.96086 17.7893 3.46957 18 4 18H16C16.5304 18 17.0391 17.7893 17.4142 17.4142C17.7893 17.0391 18 16.5304 18 16C18.5304 16 19.0391 15.7893 19.4142 15.4142C19.7893 15.0391 20 14.5304 20 14C20.5304 14 21.0391 13.7893 21.4142 13.4142C21.7893 13.0391 22 12.5304 22 12V8C22 7.46957 21.7893 6.96086 21.4142 6.58578C21.0391 6.21071 20.5304 6 20 6ZM12.5 14.5H11.86L11.47 15.66C11.4401 15.7615 11.3782 15.8505 11.2935 15.9138C11.2087 15.9772 11.1058 16.0114 11 16.0114C10.8942 16.0114 10.7913 15.9772 10.7065 15.9138C10.6218 15.8505 10.5599 15.7615 10.53 15.66L10.14 14.5H9.85999L9.46997 15.66C9.43101 15.7525 9.36565 15.8314 9.28204 15.8869C9.19844 15.9424 9.10035 15.972 9 15.972C8.89965 15.972 8.80156 15.9424 8.71796 15.8869C8.63435 15.8314 8.56899 15.7525 8.53003 15.66L8.14001 14.5H7.5C7.36739 14.5 7.24019 14.4473 7.14642 14.3535C7.05266 14.2598 7 14.1326 7 14C7 13.8674 7.05266 13.7402 7.14642 13.6465C7.24019 13.5527 7.36739 13.5 7.5 13.5H7.81L7.53003 12.66C7.49951 12.5963 7.4828 12.5268 7.48108 12.4562C7.47936 12.3855 7.49264 12.3153 7.52002 12.2502C7.5474 12.1851 7.58828 12.1265 7.63995 12.0783C7.69163 12.0301 7.75294 11.9934 7.81982 11.9707C7.88671 11.9479 7.95761 11.9396 8.02795 11.9462C8.09829 11.9529 8.16647 11.9743 8.22791 12.0092C8.28934 12.0441 8.34267 12.0917 8.3844 12.1487C8.42613 12.2057 8.45528 12.2709 8.46997 12.34L8.85999 13.5H9.14001L9.53003 12.34C9.56899 12.2475 9.63435 12.1686 9.71796 12.1131C9.80156 12.0576 9.89965 12.028 10 12.028C10.1003 12.028 10.1984 12.0576 10.282 12.1131C10.3656 12.1686 10.431 12.2475 10.47 12.34L10.86 13.5H11.14L11.53 12.34C11.5829 12.2296 11.6744 12.1425 11.7872 12.0951C11.9 12.0477 12.0263 12.0432 12.1421 12.0827C12.2579 12.1221 12.3553 12.2027 12.4157 12.3091C12.4761 12.4154 12.4954 12.5403 12.47 12.66L12.19 13.5H12.5C12.6326 13.5 12.7598 13.5527 12.8536 13.6465C12.9473 13.7402 13 13.8674 13 14C13 14.1326 12.9473 14.2598 12.8536 14.3535C12.7598 14.4473 12.6326 14.5 12.5 14.5Z" fill="#2F3E39"/>
</g>
<defs>
<clipPath id="clip0_9703_163364">
<rect width="20" height="12" fill="white" transform="translate(2 6)"/>
</clipPath>
</defs>
</svg>
