<svg width="24" height="24" viewBox="0 0 24 24" fill="none" xmlns="http://www.w3.org/2000/svg">
<path d="M12.5 13.4994H12.19L12.47 12.6594C12.4955 12.5397 12.4761 12.4148 12.4157 12.3084C12.3552 12.202 12.2579 12.1215 12.1421 12.082C12.0262 12.0426 11.9 12.047 11.7872 12.0944C11.6744 12.1419 11.5829 12.229 11.53 12.3393L11.14 13.4994H10.86L10.47 12.3393C10.431 12.2469 10.3657 12.1679 10.2821 12.1124C10.1985 12.0569 10.1003 12.0273 10 12.0273C9.89965 12.0273 9.80153 12.0569 9.71793 12.1124C9.63432 12.1679 9.56896 12.2469 9.53 12.3393L9.14001 13.4994H8.85999L8.47 12.3393C8.45531 12.2702 8.42613 12.205 8.3844 12.148C8.34267 12.091 8.28931 12.0435 8.22787 12.0086C8.16644 11.9737 8.09833 11.9522 8.02798 11.9456C7.95764 11.9389 7.88668 11.9473 7.81979 11.97C7.75291 11.9928 7.69163 12.0295 7.63995 12.0777C7.58828 12.1258 7.5474 12.1844 7.52002 12.2496C7.49264 12.3147 7.47936 12.3849 7.48108 12.4555C7.4828 12.5262 7.49948 12.5956 7.53 12.6594L7.81 13.4994H7.5C7.36739 13.4994 7.24022 13.552 7.14645 13.6458C7.05269 13.7396 7 13.8667 7 13.9994C7 14.132 7.05269 14.2591 7.14645 14.3529C7.24022 14.4467 7.36739 14.4994 7.5 14.4994H8.14001L8.53 15.6594C8.56896 15.7518 8.63432 15.8308 8.71793 15.8863C8.80153 15.9418 8.89965 15.9714 9 15.9714C9.10035 15.9714 9.19847 15.9418 9.28207 15.8863C9.36568 15.8308 9.43104 15.7518 9.47 15.6594L9.85999 14.4994H10.14L10.53 15.6594C10.5599 15.7608 10.6219 15.8499 10.7066 15.9132C10.7913 15.9765 10.8942 16.0108 11 16.0108C11.1058 16.0108 11.2087 15.9765 11.2934 15.9132C11.3781 15.8499 11.4401 15.7608 11.47 15.6594L11.86 14.4994H12.5C12.6326 14.4994 12.7598 14.4467 12.8535 14.3529C12.9473 14.2591 13 14.132 13 13.9994C13 13.8667 12.9473 13.7396 12.8535 13.6458C12.7598 13.552 12.6326 13.4994 12.5 13.4994Z" fill="#2F3E39"/>
<path d="M20 6H8C7.46957 6 6.96086 6.21071 6.58578 6.58578C6.21071 6.96086 6 7.46957 6 8C5.46957 8 4.96086 8.21071 4.58578 8.58578C4.21071 8.96086 4 9.46957 4 10C3.46957 10 2.96086 10.2107 2.58578 10.5858C2.21071 10.9609 2 11.4696 2 12V16C2 16.5304 2.21071 17.0391 2.58578 17.4142C2.96086 17.7893 3.46957 18 4 18H16C16.5304 18 17.0391 17.7893 17.4142 17.4142C17.7893 17.0391 18 16.5304 18 16C18.5304 16 19.0391 15.7893 19.4142 15.4142C19.7893 15.0391 20 14.5304 20 14C20.5304 14 21.0391 13.7893 21.4142 13.4142C21.7893 13.0391 22 12.5304 22 12V8C22 7.46957 21.7893 6.96086 21.4142 6.58578C21.0391 6.21071 20.5304 6 20 6ZM17 16C17 16.2652 16.8946 16.5196 16.7071 16.7071C16.5196 16.8946 16.2652 17 16 17H4C3.73478 17 3.48044 16.8946 3.29291 16.7071C3.10537 16.5196 3 16.2652 3 16V12C3 11.7348 3.10537 11.4804 3.29291 11.2929C3.48044 11.1054 3.73478 11 4 11H16C16.2652 11 16.5196 11.1054 16.7071 11.2929C16.8946 11.4804 17 11.7348 17 12V16ZM19 14C19 14.2652 18.8946 14.5196 18.7071 14.7071C18.5196 14.8946 18.2652 15 18 15V12C18 11.4696 17.7893 10.9609 17.4142 10.5858C17.0391 10.2107 16.5304 10 16 10H5C5 9.73478 5.10537 9.48044 5.29291 9.29291C5.48044 9.10537 5.73478 9 6 9H18C18.2652 9 18.5196 9.10537 18.7071 9.29291C18.8946 9.48044 19 9.73478 19 10V14ZM21 12C21 12.2652 20.8946 12.5196 20.7071 12.7071C20.5196 12.8946 20.2652 13 20 13V10C20 9.46957 19.7893 8.96086 19.4142 8.58578C19.0391 8.21071 18.5304 8 18 8H7C7 7.73478 7.10537 7.48044 7.29291 7.29291C7.48044 7.10537 7.73478 7 8 7H20C20.2652 7 20.5196 7.10537 20.7071 7.29291C20.8946 7.48044 21 7.73478 21 8V12Z" fill="#2F3E39"/>
</svg>
