<svg width="24" height="24" viewBox="0 0 24 24" fill="none" xmlns="http://www.w3.org/2000/svg">
<g clip-path="url(#clip0_9703_163355)">
<path d="M21 9.84V7C21 6.33696 20.7366 5.70108 20.2678 5.23224C19.7989 4.7634 19.163 4.5 18.5 4.5H6.5C5.92367 4.49988 5.36501 4.6989 4.91855 5.06335C4.47209 5.42781 4.16525 5.93532 4.04999 6.5C3.42564 6.5501 2.84285 6.83274 2.41693 7.29199C1.99101 7.75125 1.753 8.35365 1.75 8.98V12.98C1.75 13.643 2.0134 14.2789 2.48224 14.7478C2.95108 15.2166 3.58696 15.48 4.25 15.48H10.6C10.8863 16.302 11.348 17.0519 11.9531 17.6776C12.5582 18.3033 13.2922 18.7899 14.1042 19.1035C14.9162 19.4172 15.7866 19.5504 16.6552 19.494C17.5239 19.4375 18.3698 19.1928 19.1343 18.7767C19.8989 18.3606 20.5638 17.7831 21.0828 17.0844C21.6018 16.3856 21.9626 15.5823 22.1401 14.7301C22.3176 13.878 22.3076 12.9974 22.1107 12.1495C21.9138 11.3017 21.5348 10.5068 21 9.82001V9.84ZM6.5 5.5H18.5C18.8978 5.5 19.2794 5.65804 19.5607 5.93935C19.842 6.22065 20 6.60218 20 7V8.82001C19.5485 8.45622 19.0466 8.1598 18.51 7.94C18.3088 7.51024 17.9894 7.14661 17.5892 6.89162C17.189 6.63662 16.7245 6.50079 16.25 6.5H5.09C5.19315 6.20823 5.38404 5.9555 5.63647 5.77647C5.88891 5.59744 6.19053 5.50087 6.5 5.5ZM4.25 14.5C3.85218 14.5 3.47064 14.342 3.18933 14.0607C2.90803 13.7793 2.75 13.3978 2.75 13V9C2.75 8.60218 2.90803 8.22065 3.18933 7.93935C3.47064 7.65804 3.85218 7.5 4.25 7.5H16.25C14.7765 7.49508 13.3527 8.03256 12.25 9.00999C12.1419 9.00194 12.0342 9.02998 11.9437 9.08969C11.8532 9.14941 11.7851 9.23743 11.75 9.34L11.66 9.61C11.4344 9.87082 11.2336 10.152 11.06 10.45L10.69 9.34C10.651 9.24752 10.5857 9.1686 10.5021 9.1131C10.4185 9.0576 10.3203 9.02798 10.22 9.02798C10.1197 9.02798 10.0215 9.0576 9.93793 9.1131C9.85432 9.1686 9.78896 9.24752 9.75 9.34L9.35999 10.5H9.07999L8.69 9.34C8.67531 9.27089 8.64613 9.20568 8.6044 9.14867C8.56267 9.09165 8.50931 9.04413 8.44788 9.00923C8.38644 8.97433 8.31833 8.95286 8.24799 8.94621C8.17765 8.93956 8.10668 8.9479 8.03979 8.97067C7.97291 8.99344 7.91163 9.03012 7.85995 9.07831C7.80828 9.12649 7.7674 9.18508 7.74002 9.25021C7.71264 9.31535 7.69936 9.38554 7.70108 9.45618C7.7028 9.52681 7.71948 9.59628 7.75 9.66L8.03 10.5H7.72C7.58739 10.5 7.46022 10.5527 7.36646 10.6465C7.27269 10.7402 7.22 10.8674 7.22 11C7.22 11.1326 7.27269 11.2598 7.36646 11.3535C7.46022 11.4473 7.58739 11.5 7.72 11.5H8.35999L8.75 12.66C8.78896 12.7525 8.85432 12.8314 8.93793 12.8869C9.02153 12.9424 9.11965 12.972 9.22 12.972C9.32035 12.972 9.41847 12.9424 9.50208 12.8869C9.58568 12.8314 9.65105 12.7525 9.69 12.66L10.08 11.5H10.36L10.46 11.81C10.3033 12.3598 10.2226 12.9284 10.22 13.5C10.2247 13.8351 10.2548 14.1694 10.31 14.5H4.25ZM15.05 16.31L12.9 14.15L13.6 13.45L15.05 14.89L18.9 11.05L19.6 11.75L15.05 16.31Z" fill="#2F3E39"/>
</g>
<defs>
<clipPath id="clip0_9703_163355">
<rect width="20.5" height="15" fill="white" transform="translate(1.75 4.5)"/>
</clipPath>
</defs>
</svg>
