<svg width="24" height="24" viewBox="0 0 24 24" fill="none" xmlns="http://www.w3.org/2000/svg">
<path d="M16 2H8C7.46957 2 6.96086 2.21071 6.58578 2.58578C6.21071 2.96086 6 3.46957 6 4V20C6 20.5304 6.21071 21.0391 6.58578 21.4142C6.96086 21.7893 7.46957 22 8 22H16C16.5304 22 17.0391 21.7893 17.4142 21.4142C17.7893 21.0391 18 20.5304 18 20V4C18 3.46957 17.7893 2.96086 17.4142 2.58578C17.0391 2.21071 16.5304 2 16 2ZM17 20C17 20.2652 16.8946 20.5196 16.7071 20.7071C16.5196 20.8946 16.2652 21 16 21H8C7.73478 21 7.48043 20.8946 7.29289 20.7071C7.10536 20.5196 7 20.2652 7 20V4C7 3.73478 7.10536 3.48044 7.29289 3.29291C7.48043 3.10537 7.73478 3 8 3H10C10 3.26522 10.1054 3.51956 10.2929 3.70709C10.4804 3.89463 10.7348 4 11 4H13C13.2652 4 13.5196 3.89463 13.7071 3.70709C13.8946 3.51956 14 3.26522 14 3H16C16.2652 3 16.5196 3.10537 16.7071 3.29291C16.8946 3.48044 17 3.73478 17 4V20Z" fill="#2F3E39"/>
<path d="M13.6504 10.9L12.5004 12.04V8H11.5004V12.04L10.3504 10.9L9.65039 11.6L12.0004 13.96L14.3504 11.6L13.6504 10.9Z" fill="#2F3E39"/>
<path d="M15 16H9V17H15V16Z" fill="#2F3E39"/>
</svg>
