<svg width="24" height="24" viewBox="0 0 24 24" fill="none" xmlns="http://www.w3.org/2000/svg">
<path d="M7.8 13H6.2C6.14695 13 6.09609 13.0211 6.05858 13.0586C6.02107 13.0961 6 13.147 6 13.2V14.8C6 14.853 6.02107 14.9039 6.05858 14.9414C6.09609 14.9789 6.14695 15 6.2 15H7.8C7.85305 15 7.90391 14.9789 7.94142 14.9414C7.97893 14.9039 8 14.853 8 14.8V13.2C8 13.147 7.97893 13.0961 7.94142 13.0586C7.90391 13.0211 7.85305 13 7.8 13Z" fill="#2F3E39"/>
<path d="M12.8 13H11.2C11.147 13 11.0961 13.0211 11.0586 13.0586C11.0211 13.0961 11 13.147 11 13.2V14.8C11 14.853 11.0211 14.9039 11.0586 14.9414C11.0961 14.9789 11.147 15 11.2 15H12.8C12.853 15 12.9039 14.9789 12.9414 14.9414C12.9789 14.9039 13 14.853 13 14.8V13.2C13 13.147 12.9789 13.0961 12.9414 13.0586C12.9039 13.0211 12.853 13 12.8 13Z" fill="#2F3E39"/>
<path d="M17.8 13H16.2C16.147 13 16.0961 13.0211 16.0586 13.0586C16.0211 13.0961 16 13.147 16 13.2V14.8C16 14.853 16.0211 14.9039 16.0586 14.9414C16.0961 14.9789 16.147 15 16.2 15H17.8C17.853 15 17.9039 14.9789 17.9414 14.9414C17.9789 14.9039 18 14.853 18 14.8V13.2C18 13.147 17.9789 13.0961 17.9414 13.0586C17.9039 13.0211 17.853 13 17.8 13Z" fill="#2F3E39"/>
<path d="M7.8 17H6.2C6.14695 17 6.09609 17.0211 6.05858 17.0586C6.02107 17.0961 6 17.147 6 17.2V18.8C6 18.853 6.02107 18.9039 6.05858 18.9414C6.09609 18.9789 6.14695 19 6.2 19H7.8C7.85305 19 7.90391 18.9789 7.94142 18.9414C7.97893 18.9039 8 18.853 8 18.8V17.2C8 17.147 7.97893 17.0961 7.94142 17.0586C7.90391 17.0211 7.85305 17 7.8 17Z" fill="#2F3E39"/>
<path d="M12.8 17H11.2C11.147 17 11.0961 17.0211 11.0586 17.0586C11.0211 17.0961 11 17.147 11 17.2V18.8C11 18.853 11.0211 18.9039 11.0586 18.9414C11.0961 18.9789 11.147 19 11.2 19H12.8C12.853 19 12.9039 18.9789 12.9414 18.9414C12.9789 18.9039 13 18.853 13 18.8V17.2C13 17.147 12.9789 17.0961 12.9414 17.0586C12.9039 17.0211 12.853 17 12.8 17Z" fill="#2F3E39"/>
<path d="M17.8 17H16.2C16.147 17 16.0961 17.0211 16.0586 17.0586C16.0211 17.0961 16 17.147 16 17.2V18.8C16 18.853 16.0211 18.9039 16.0586 18.9414C16.0961 18.9789 16.147 19 16.2 19H17.8C17.853 19 17.9039 18.9789 17.9414 18.9414C17.9789 18.9039 18 18.853 18 18.8V17.2C18 17.147 17.9789 17.0961 17.9414 17.0586C17.9039 17.0211 17.853 17 17.8 17Z" fill="#2F3E39"/>
<path d="M20 5H17V3H16V5H8V3H7V5H4C3.46957 5 2.96086 5.21071 2.58578 5.58578C2.21071 5.96086 2 6.46957 2 7V20C2 20.5304 2.21071 21.0391 2.58578 21.4142C2.96086 21.7893 3.46957 22 4 22H20C20.5304 22 21.0391 21.7893 21.4142 21.4142C21.7893 21.0391 22 20.5304 22 20V7C22 6.46957 21.7893 5.96086 21.4142 5.58578C21.0391 5.21071 20.5304 5 20 5ZM21 20C21 20.2652 20.8946 20.5196 20.7071 20.7071C20.5196 20.8946 20.2652 21 20 21H4C3.73478 21 3.48043 20.8946 3.29289 20.7071C3.10536 20.5196 3 20.2652 3 20V11H21V20ZM21 10H3V7C3 6.73478 3.10536 6.48044 3.29289 6.29291C3.48043 6.10537 3.73478 6 4 6H7V8H8V6H16V8H17V6H20C20.2652 6 20.5196 6.10537 20.7071 6.29291C20.8946 6.48044 21 6.73478 21 7V10Z" fill="#2F3E39"/>
</svg>
