<svg width="24" height="24" viewBox="0 0 24 24" fill="none" xmlns="http://www.w3.org/2000/svg">
<g clip-path="url(#clip0_9703_163345)">
<path d="M14.38 5.00002L15.11 6.45004L15.38 7.00002H20C20.2652 7.00002 20.5196 7.1054 20.7071 7.29293C20.8946 7.48047 21 7.73481 21 8.00002V18C21 18.2652 20.8946 18.5196 20.7071 18.7071C20.5196 18.8947 20.2652 19 20 19H4C3.73478 19 3.48044 18.8947 3.29291 18.7071C3.10537 18.5196 3 18.2652 3 18V8.00002C3 7.73481 3.10537 7.48047 3.29291 7.29293C3.48044 7.1054 3.73478 7.00002 4 7.00002H8.62L8.89001 6.45004L9.62 5.00002H14.38ZM14.38 4.00002H9.62C9.43363 3.99873 9.25061 4.04954 9.09158 4.14672C8.93256 4.2439 8.80386 4.38358 8.72 4.55001L8 6.00002H4C3.46957 6.00002 2.96086 6.21074 2.58578 6.58581C2.21071 6.96088 2 7.46959 2 8.00002V18C2 18.5305 2.21071 19.0392 2.58578 19.4142C2.96086 19.7893 3.46957 20 4 20H20C20.5304 20 21.0391 19.7893 21.4142 19.4142C21.7893 19.0392 22 18.5305 22 18V8.00002C22 7.46959 21.7893 6.96088 21.4142 6.58581C21.0391 6.21074 20.5304 6.00002 20 6.00002H16L15.28 4.55001C15.1961 4.38358 15.0674 4.2439 14.9084 4.14672C14.7494 4.04954 14.5664 3.99873 14.38 4.00002Z" fill="#2F3E39"/>
<path d="M12 10C12.5933 10 13.1734 10.1759 13.6667 10.5056C14.1601 10.8352 14.5446 11.3038 14.7716 11.852C14.9987 12.4001 15.0581 13.0033 14.9423 13.5853C14.8266 14.1672 14.5409 14.7017 14.1213 15.1213C13.7017 15.5409 13.1672 15.8266 12.5853 15.9424C12.0033 16.0581 11.4001 15.9987 10.852 15.7716C10.3038 15.5446 9.83522 15.1601 9.50558 14.6667C9.17593 14.1734 8.99999 13.5933 8.99999 13C8.99999 12.2044 9.31608 11.4413 9.87869 10.8787C10.4413 10.3161 11.2043 10 12 10ZM12 9C11.2089 9 10.4355 9.23461 9.7777 9.67413C9.11991 10.1137 8.60722 10.7384 8.30447 11.4693C8.00172 12.2002 7.92253 13.0044 8.07687 13.7804C8.23121 14.5563 8.61215 15.269 9.17156 15.8284C9.73097 16.3878 10.4437 16.7688 11.2196 16.9231C11.9956 17.0775 12.7998 16.9983 13.5307 16.6955C14.2616 16.3928 14.8863 15.8801 15.3259 15.2223C15.7654 14.5645 16 13.7911 16 13C16 11.9391 15.5786 10.9217 14.8284 10.1716C14.0783 9.42142 13.0609 9 12 9Z" fill="#2F3E39"/>
<path d="M19 8H17V9H19V8Z" fill="#2F3E39"/>
</g>
<defs>
<clipPath id="clip0_9703_163345">
<rect width="20" height="16" fill="white" transform="translate(2 4)"/>
</clipPath>
</defs>
</svg>
