<svg width="24" height="24" viewBox="0 0 24 24" fill="none" xmlns="http://www.w3.org/2000/svg">
<path d="M20 5H4C3.46957 5 2.96086 5.21071 2.58578 5.58578C2.21071 5.96086 2 6.46957 2 7V17C2 17.5304 2.21071 18.0391 2.58578 18.4142C2.96086 18.7893 3.46957 19 4 19H20C20.5304 19 21.0391 18.7893 21.4142 18.4142C21.7893 18.0391 22 17.5304 22 17V7C22 6.46957 21.7893 5.96086 21.4142 5.58578C21.0391 5.21071 20.5304 5 20 5ZM21 17C21 17.2652 20.8946 17.5196 20.7071 17.7071C20.5196 17.8946 20.2652 18 20 18H4C3.73478 18 3.48044 17.8946 3.29291 17.7071C3.10537 17.5196 3 17.2652 3 17V10.5H21V17ZM3 8.5V7C3 6.73478 3.10537 6.48044 3.29291 6.29291C3.48044 6.10537 3.73478 6 4 6H20C20.2652 6 20.5196 6.10537 20.7071 6.29291C20.8946 6.48044 21 6.73478 21 7V8.5H3Z" fill="#2F3E39"/>
<path fill-rule="evenodd" clip-rule="evenodd" d="M17.75 16.5001C17.5219 16.8037 17.1589 17 16.75 17C16.0596 17 15.5 16.4404 15.5 15.75C15.5 15.0596 16.0596 14.5 16.75 14.5C17.1589 14.5 17.5219 14.6963 17.75 14.9999C17.9781 14.6963 18.3411 14.5 18.75 14.5C19.4404 14.5 20 15.0596 20 15.75C20 16.4404 19.4404 17 18.75 17C18.3411 17 17.9781 16.8037 17.75 16.5001Z" fill="#2F3E39"/>
</svg>
