<svg width="24" height="24" viewBox="0 0 24 24" fill="none" xmlns="http://www.w3.org/2000/svg">
<path d="M6.78 9H5.2C5.14695 9 5.09609 9.02109 5.05858 9.05859C5.02107 9.0961 5 9.14697 5 9.20001V10.8C5 10.853 5.02107 10.9039 5.05858 10.9414C5.09609 10.9789 5.14695 11 5.2 11H6.8C6.85305 11 6.90391 10.9789 6.94142 10.9414C6.97893 10.9039 7 10.853 7 10.8V9.22C7 9.16165 6.97682 9.10568 6.93556 9.06442C6.8943 9.02316 6.83835 9 6.78 9Z" fill="#2F3E39"/>
<path d="M12.78 9H11.2C11.147 9 11.0961 9.02109 11.0586 9.05859C11.0211 9.0961 11 9.14697 11 9.20001V10.8C11 10.853 11.0211 10.9039 11.0586 10.9414C11.0961 10.9789 11.147 11 11.2 11H12.8C12.853 11 12.9039 10.9789 12.9414 10.9414C12.9789 10.9039 13 10.853 13 10.8V9.22C13 9.16165 12.9768 9.10568 12.9356 9.06442C12.8943 9.02316 12.8383 9 12.78 9Z" fill="#2F3E39"/>
<path d="M18.78 9H17.2C17.147 9 17.0961 9.02109 17.0586 9.05859C17.0211 9.0961 17 9.14697 17 9.20001V10.8C17 10.853 17.0211 10.9039 17.0586 10.9414C17.0961 10.9789 17.147 11 17.2 11H18.8C18.853 11 18.9039 10.9789 18.9414 10.9414C18.9789 10.9039 19 10.853 19 10.8V9.22C19 9.16165 18.9768 9.10568 18.9356 9.06442C18.8943 9.02316 18.8383 9 18.78 9Z" fill="#2F3E39"/>
<path d="M20 3H4C3.46957 3 2.96086 3.21071 2.58578 3.58578C2.21071 3.96086 2 4.46957 2 5V15C2 15.5304 2.21071 16.0391 2.58578 16.4142C2.96086 16.7893 3.46957 17 4 17H16V21L19.2 17H20C20.5304 17 21.0391 16.7893 21.4142 16.4142C21.7893 16.0391 22 15.5304 22 15V5C22 4.46957 21.7893 3.96086 21.4142 3.58578C21.0391 3.21071 20.5304 3 20 3ZM21 15C21 15.2652 20.8946 15.5196 20.7071 15.7071C20.5196 15.8946 20.2652 16 20 16H18.72L18.42 16.38L17 18.15V16H4C3.73478 16 3.48043 15.8946 3.29289 15.7071C3.10536 15.5196 3 15.2652 3 15V5C3 4.73478 3.10536 4.48044 3.29289 4.29291C3.48043 4.10537 3.73478 4 4 4H20C20.2652 4 20.5196 4.10537 20.7071 4.29291C20.8946 4.48044 21 4.73478 21 5V15Z" fill="#2F3E39"/>
</svg>
