<svg width="24" height="24" viewBox="0 0 24 24" fill="none" xmlns="http://www.w3.org/2000/svg">
<g clip-path="url(#clip0_9703_163344)">
<path d="M10.5 11.5001H10.19L10.47 10.6501C10.4917 10.5878 10.5006 10.5218 10.4962 10.4559C10.4917 10.3901 10.4741 10.3258 10.4442 10.267C10.4143 10.2082 10.3728 10.156 10.3223 10.1135C10.2717 10.0711 10.2132 10.0393 10.15 10.0201C10.024 9.9818 9.88803 9.99369 9.7706 10.0533C9.65317 10.113 9.56339 10.2158 9.52002 10.3401L9.14001 11.5001H8.86002L8.47 10.3401C8.4291 10.2483 8.36247 10.1703 8.27817 10.1156C8.19387 10.0609 8.09551 10.0317 7.995 10.0317C7.89448 10.0317 7.79615 10.0609 7.71185 10.1156C7.62755 10.1703 7.56092 10.2483 7.52002 10.3401L7.14001 11.5001H6.86002L6.47 10.3401C6.42663 10.2158 6.33685 10.113 6.21942 10.0533C6.10199 9.99369 5.96601 9.9818 5.84 10.0201C5.71407 10.0613 5.60965 10.1508 5.54965 10.2689C5.48965 10.387 5.47901 10.5242 5.52002 10.6501L5.80002 11.5001H5.5C5.36739 11.5001 5.24022 11.5528 5.14645 11.6466C5.05269 11.7403 5 11.8675 5 12.0001C5 12.1328 5.05269 12.2599 5.14645 12.3537C5.24022 12.4475 5.36739 12.5001 5.5 12.5001H6.14001L6.52002 13.6501C6.56092 13.7419 6.62755 13.8199 6.71185 13.8747C6.79615 13.9294 6.89448 13.9585 6.995 13.9585C7.09551 13.9585 7.19387 13.9294 7.27817 13.8747C7.36247 13.8199 7.4291 13.7419 7.47 13.6501L7.86002 12.5001H8.14001L8.52002 13.6501C8.5529 13.7502 8.61652 13.8373 8.70181 13.899C8.78711 13.9608 8.8897 13.994 8.995 13.994C9.10029 13.994 9.20291 13.9608 9.28821 13.899C9.3735 13.8373 9.43712 13.7502 9.47 13.6501L9.86002 12.5001H10.5C10.6318 12.4976 10.7575 12.4441 10.8507 12.3509C10.944 12.2576 10.9974 12.1319 11 12.0001C11 11.8675 10.9473 11.7403 10.8536 11.6466C10.7598 11.5528 10.6326 11.5001 10.5 11.5001Z" fill="#2F3E39"/>
<path d="M20.01 7H4.01001C3.47958 7 2.97087 7.21071 2.59579 7.58578C2.22072 7.96086 2.01001 8.46957 2.01001 9V15C2.01001 15.5304 2.22072 16.0391 2.59579 16.4142C2.97087 16.7893 3.47958 17 4.01001 17H20.01C20.5404 17 21.0492 16.7893 21.4242 16.4142C21.7993 16.0391 22.01 15.5304 22.01 15V9C22.01 8.46957 21.7993 7.96086 21.4242 7.58578C21.0492 7.21071 20.5404 7 20.01 7ZM21.01 15C21.01 15.2652 20.9046 15.5196 20.7171 15.7071C20.5296 15.8946 20.2752 16 20.01 16H4.01001C3.74479 16 3.49045 15.8946 3.30292 15.7071C3.11538 15.5196 3.01001 15.2652 3.01001 15V9C3.01001 8.73478 3.11538 8.48041 3.30292 8.29288C3.49045 8.10534 3.74479 8 4.01001 8H20.01C20.2752 8 20.5296 8.10534 20.7171 8.29288C20.9046 8.48041 21.01 8.73478 21.01 9V15Z" fill="#2F3E39"/>
<path d="M19.01 10H13.01V11H19.01V10Z" fill="#2F3E39"/>
<path d="M19.01 13H13.01V14H19.01V13Z" fill="#2F3E39"/>
</g>
<defs>
<clipPath id="clip0_9703_163344">
<rect width="20" height="10" fill="white" transform="translate(2 7)"/>
</clipPath>
</defs>
</svg>
