<svg width="24" height="24" viewBox="0 0 24 24" fill="none" xmlns="http://www.w3.org/2000/svg">
<path d="M16 2H8C6.4087 2 4.88258 2.63214 3.75736 3.75735C2.63214 4.88257 2 6.4087 2 8V16C2 17.5913 2.63214 19.1174 3.75736 20.2426C4.88258 21.3679 6.4087 22 8 22H16C17.5913 22 19.1174 21.3679 20.2426 20.2426C21.3679 19.1174 22 17.5913 22 16V8C22 6.4087 21.3679 4.88257 20.2426 3.75735C19.1174 2.63214 17.5913 2 16 2ZM10 16L6.65 12.72L7.35 12.02L10 14.66L16.65 8.01999L17.35 8.72L10 16Z" fill="#2F3E39"/>
</svg>
