<svg width="24" height="24" viewBox="0 0 24 24" fill="none" xmlns="http://www.w3.org/2000/svg">
<path d="M16 3C17.3261 3 18.5979 3.5268 19.5355 4.46448C20.4732 5.40216 21 6.67392 21 8V16C21 17.3261 20.4732 18.5978 19.5355 19.5355C18.5979 20.4732 17.3261 21 16 21H8C6.67392 21 5.40214 20.4732 4.46446 19.5355C3.52678 18.5978 3 17.3261 3 16V8C3 6.67392 3.52678 5.40216 4.46446 4.46448C5.40214 3.5268 6.67392 3 8 3H16ZM16 2H8C6.4087 2 4.88258 2.63214 3.75736 3.75735C2.63214 4.88257 2 6.4087 2 8V16C2 17.5913 2.63214 19.1174 3.75736 20.2426C4.88258 21.3679 6.4087 22 8 22H16C17.5913 22 19.1174 21.3679 20.2426 20.2426C21.3679 19.1174 22 17.5913 22 16V8C22 6.4087 21.3679 4.88257 20.2426 3.75735C19.1174 2.63214 17.5913 2 16 2Z" fill="#2F3E39"/>
</svg>
