<svg width="24" height="24" viewBox="0 0 24 24" fill="none" xmlns="http://www.w3.org/2000/svg">
<path d="M16.9495 7.04999C15.9705 6.07109 14.7232 5.4045 13.3654 5.13446C12.0075 4.86442 10.6001 5.00306 9.32104 5.5329C8.042 6.06273 6.9488 6.95995 6.17966 8.11108C5.41052 9.26221 5 10.6156 5 12C5 13.3844 5.41052 14.7378 6.17966 15.8889C6.9488 17.04 8.042 17.9373 9.32104 18.4671C10.6001 18.9969 12.0075 19.1356 13.3654 18.8655C14.7232 18.5955 15.9705 17.9289 16.9495 16.95C17.5996 16.3 18.1153 15.5283 18.4671 14.679C18.8189 13.8296 19 12.9193 19 12C19 11.0807 18.8189 10.1704 18.4671 9.32104C18.1153 8.47172 17.5996 7.70001 16.9495 7.04999ZM13.4095 14.12L11.9495 12.71L10.5395 14.12L9.8295 13.41L11.2395 12L9.8295 10.59L10.5395 9.88L11.9495 11.29L13.3595 9.88L14.0695 10.59L12.6595 12L14.0695 13.41L13.4095 14.12Z" fill="#2F3E39"/>
</svg>
