<svg width="48" height="48" viewBox="0 0 48 48" fill="none" xmlns="http://www.w3.org/2000/svg">
<rect x="11" y="14" width="15" height="26.6667" fill="white"/>
<path d="M36 40.6719V24.0052C36 22.1719 34.5 20.6719 32.6667 20.6719H31V44.0052H32.6667C34.5 44.0052 36 42.5052 36 40.6719Z" fill="#78ECBB"/>
<g filter="url(#filter0_d_9703_163375)">
<path d="M31 17.3385V14.0052C31 12.1719 29.5 10.6719 27.6667 10.6719H9.33333C7.5 10.6719 6 12.1719 6 14.0052V40.6719C6 42.5052 7.5 44.0052 9.33333 44.0052H31V17.3385ZM16 38.6719C16 38.8552 15.85 39.0052 15.6667 39.0052H13C12.8167 39.0052 12.6667 38.8552 12.6667 38.6719V36.0052C12.6667 35.8219 12.8167 35.6719 13 35.6719H15.6667C15.85 35.6719 16 35.8219 16 36.0052V38.6719ZM16 32.0052C16 32.1885 15.85 32.3385 15.6667 32.3385H13C12.8167 32.3385 12.6667 32.1885 12.6667 32.0052V29.3385C12.6667 29.1552 12.8167 29.0052 13 29.0052H15.6667C15.85 29.0052 16 29.1552 16 29.3385V32.0052ZM16 25.3385C16 25.5219 15.85 25.6719 15.6667 25.6719H13C12.8167 25.6719 12.6667 25.5219 12.6667 25.3385V22.6719C12.6667 22.4885 12.8167 22.3385 13 22.3385H15.6667C15.85 22.3385 16 22.4885 16 22.6719V25.3385ZM16 18.6719C16 18.8552 15.85 19.0052 15.6667 19.0052H13C12.8167 19.0052 12.6667 18.8552 12.6667 18.6719V16.0052C12.6667 15.8219 12.8167 15.6719 13 15.6719H15.6667C15.85 15.6719 16 15.8219 16 16.0052V18.6719ZM24.3333 38.6719C24.3333 38.8552 24.1833 39.0052 24 39.0052H21.3333C21.15 39.0052 21 38.8552 21 38.6719V36.0052C21 35.8219 21.15 35.6719 21.3333 35.6719H24C24.1833 35.6719 24.3333 35.8219 24.3333 36.0052V38.6719ZM24.3333 32.0052C24.3333 32.1885 24.1833 32.3385 24 32.3385H21.3333C21.15 32.3385 21 32.1885 21 32.0052V29.3385C21 29.1552 21.15 29.0052 21.3333 29.0052H24C24.1833 29.0052 24.3333 29.1552 24.3333 29.3385V32.0052ZM24.3333 25.3385C24.3333 25.5219 24.1833 25.6719 24 25.6719H21.3333C21.15 25.6719 21 25.5219 21 25.3385V22.6719C21 22.4885 21.15 22.3385 21.3333 22.3385H24C24.1833 22.3385 24.3333 22.4885 24.3333 22.6719V25.3385ZM24.3333 18.6719C24.3333 18.8552 24.1833 19.0052 24 19.0052H21.3333C21.15 19.0052 21 18.8552 21 18.6719V16.0052C21 15.8219 21.15 15.6719 21.3333 15.6719H24C24.1833 15.6719 24.3333 15.8219 24.3333 16.0052V18.6719Z" fill="#78ECBB"/>
</g>
<path d="M39 3.75C37.9617 3.75 36.9466 4.05791 36.0833 4.63479C35.2199 5.21167 34.547 6.03161 34.1496 6.99092C33.7523 7.95023 33.6483 9.00582 33.8509 10.0242C34.0535 11.0426 34.5535 11.9781 35.2877 12.7123C36.0219 13.4465 36.9574 13.9466 37.9758 14.1491C38.9942 14.3517 40.0498 14.2477 41.0091 13.8504C41.9684 13.453 42.7883 12.7801 43.3652 11.9167C43.9421 11.0534 44.25 10.0384 44.25 9C44.25 7.60761 43.6969 6.27226 42.7123 5.2877C41.7277 4.30313 40.3924 3.75 39 3.75ZM40.875 9.375H39.375V10.875H38.625V9.375H37.125V8.625H38.625V7.125H39.375V8.625H40.875V9.375Z" fill="#00D4AA"/>
<defs>
<filter id="filter0_d_9703_163375" x="5.2" y="9.87188" width="27" height="35.333" filterUnits="userSpaceOnUse" color-interpolation-filters="sRGB">
<feFlood flood-opacity="0" result="BackgroundImageFix"/>
<feColorMatrix in="SourceAlpha" type="matrix" values="0 0 0 0 0 0 0 0 0 0 0 0 0 0 0 0 0 0 127 0" result="hardAlpha"/>
<feOffset dx="0.2" dy="0.2"/>
<feGaussianBlur stdDeviation="0.5"/>
<feComposite in2="hardAlpha" operator="out"/>
<feColorMatrix type="matrix" values="0 0 0 0 0 0 0 0 0 0 0 0 0 0 0 0 0 0 0.1 0"/>
<feBlend mode="normal" in2="BackgroundImageFix" result="effect1_dropShadow_9703_163375"/>
<feBlend mode="normal" in="SourceGraphic" in2="effect1_dropShadow_9703_163375" result="shape"/>
</filter>
</defs>
</svg>
