<svg width="24" height="24" viewBox="0 0 24 24" fill="none" xmlns="http://www.w3.org/2000/svg">
<g clip-path="url(#clip0_9703_163372)">
<path d="M3.5 20C3.5 21.1 4.4 22 5.5 22H17.5C18.6 22 19.5 21.1 19.5 20V4C19.5 2.9 18.6 2 17.5 2H7.5L3.5 6V20Z" fill="#F8F8F8"/>
<path d="M3.5 6H7.5V2L3.5 6Z" fill="#F8F8F8"/>
<g filter="url(#filter0_d_9703_163372)">
<path d="M2.5 19C2.5 20.1 3.4 21 4.5 21H16.5C17.6 21 18.5 20.1 18.5 19V3C18.5 1.9 17.6 1 16.5 1H6.5L2.5 5V19Z" fill="white"/>
</g>
<path d="M2.5 5H6.5V1L2.5 5Z" fill="#C5EAFF"/>
<path d="M13 7H5.5V8H13V7Z" fill="#DFDFDF"/>
<path d="M15.5 10H5.5V11H15.5V10Z" fill="#DFDFDF"/>
<path d="M15.5 13H5.5V14H15.5V13Z" fill="#DFDFDF"/>
<path d="M17.5 23C19.7091 23 21.5 21.2091 21.5 19C21.5 16.7909 19.7091 15 17.5 15C15.2909 15 13.5 16.7909 13.5 19C13.5 21.2091 15.2909 23 17.5 23Z" fill="#00D4AA"/>
<path d="M17.9999 17L17.4999 16.5L16.9999 17L15.1499 18.85L15.8499 19.56L16.9999 18.41V21.5H17.9999V18.41L19.1499 19.56L19.8499 18.85L17.9999 17Z" fill="white"/>
</g>
<defs>
<filter id="filter0_d_9703_163372" x="1.5" y="1" width="18" height="22" filterUnits="userSpaceOnUse" color-interpolation-filters="sRGB">
<feFlood flood-opacity="0" result="BackgroundImageFix"/>
<feColorMatrix in="SourceAlpha" type="matrix" values="0 0 0 0 0 0 0 0 0 0 0 0 0 0 0 0 0 0 127 0" result="hardAlpha"/>
<feOffset dy="1"/>
<feGaussianBlur stdDeviation="0.5"/>
<feComposite in2="hardAlpha" operator="out"/>
<feColorMatrix type="matrix" values="0 0 0 0 0 0 0 0 0 0 0 0 0 0 0 0 0 0 0.06 0"/>
<feBlend mode="normal" in2="BackgroundImageFix" result="effect1_dropShadow_9703_163372"/>
<feBlend mode="normal" in="SourceGraphic" in2="effect1_dropShadow_9703_163372" result="shape"/>
</filter>
<clipPath id="clip0_9703_163372">
<rect width="19" height="22" fill="white" transform="translate(2.5 1)"/>
</clipPath>
</defs>
</svg>
