<svg width="24" height="24" viewBox="0 0 24 24" fill="none" xmlns="http://www.w3.org/2000/svg">
<g clip-path="url(#clip0_9703_163366)">
<path d="M8 9L2.5 13.4C2.34856 13.5199 2.22528 13.6717 2.13889 13.8445C2.05249 14.0172 2.00509 14.2069 2 14.4V19.63C2.00262 19.9819 2.14357 20.3187 2.39243 20.5676C2.64128 20.8164 2.97806 20.9574 3.32999 20.96H12.67C13.0219 20.9574 13.3587 20.8164 13.6076 20.5676C13.8564 20.3187 13.9974 19.9819 14 19.63V14.4C13.9949 14.2069 13.9475 14.0172 13.8611 13.8445C13.7747 13.6717 13.6514 13.5199 13.5 13.4L8 9ZM9.5 20H6.5V17H9.5V20Z" fill="#2F3E39"/>
<path d="M13 3H21C21.2652 3 21.5196 3.10537 21.7071 3.29291C21.8946 3.48044 22 3.73478 22 4V9C22 9.26522 21.8946 9.51956 21.7071 9.70709C21.5196 9.89463 21.2652 10 21 10H19.6L17 12V10H13C12.7348 10 12.4804 9.89463 12.2929 9.70709C12.1054 9.51956 12 9.26522 12 9V4C12 3.73478 12.1054 3.48044 12.2929 3.29291C12.4804 3.10537 12.7348 3 13 3Z" fill="#2F3E39"/>
</g>
<defs>
<clipPath id="clip0_9703_163366">
<rect width="20" height="18" fill="white" transform="translate(2 3)"/>
</clipPath>
</defs>
</svg>
