<svg width="24" height="24" viewBox="0 0 24 24" fill="none" xmlns="http://www.w3.org/2000/svg">
<g clip-path="url(#clip0_9703_163365)">
<path d="M8 9L2.5 13.4C2.34856 13.5199 2.22528 13.6717 2.13889 13.8445C2.05249 14.0172 2.00509 14.2069 2 14.4V19.63C2.00262 19.9819 2.14357 20.3187 2.39243 20.5676C2.64128 20.8164 2.97806 20.9574 3.32999 20.96H12.67C13.0219 20.9574 13.3587 20.8164 13.6076 20.5676C13.8564 20.3187 13.9974 19.9819 14 19.63V14.4C13.9949 14.2069 13.9475 14.0172 13.8611 13.8445C13.7747 13.6717 13.6514 13.5199 13.5 13.4L8 9ZM9.5 20H6.5V17H9.5V20ZM13 19.67C13 19.7575 12.9652 19.8415 12.9034 19.9034C12.8415 19.9652 12.7575 20 12.67 20H10.5V16H5.5V20H3.32999C3.24247 20 3.15854 19.9652 3.09665 19.9034C3.03476 19.8415 3 19.7575 3 19.67V14.44C3.00038 14.3896 3.01229 14.34 3.03482 14.2949C3.05735 14.2499 3.08992 14.2105 3.13 14.18L8 10.28L12.87 14.18C12.9101 14.2105 12.9426 14.2499 12.9652 14.2949C12.9877 14.34 12.9996 14.3896 13 14.44V19.67Z" fill="#2F3E39"/>
<path d="M21 3H13C12.7348 3 12.4804 3.10537 12.2929 3.29291C12.1054 3.48044 12 3.73478 12 4V9C12 9.26522 12.1054 9.51956 12.2929 9.70709C12.4804 9.89463 12.7348 10 13 10H17V12L19.6 10H21C21.2652 10 21.5196 9.89463 21.7071 9.70709C21.8946 9.51956 22 9.26522 22 9V4C22 3.73478 21.8946 3.48044 21.7071 3.29291C21.5196 3.10537 21.2652 3 21 3ZM21 9H19.26L18.99 9.20999L17.99 9.97V8.97H12.99V3.97H20.99L21 9Z" fill="#2F3E39"/>
</g>
<defs>
<clipPath id="clip0_9703_163365">
<rect width="20" height="18" fill="white" transform="translate(2 3)"/>
</clipPath>
</defs>
</svg>
