<svg width="24" height="24" viewBox="0 0 24 24" fill="none" xmlns="http://www.w3.org/2000/svg">
<path d="M15 8H5V9H15V8Z" fill="#2F3E39"/>
<path d="M11 11H5V12H11V11Z" fill="#2F3E39"/>
<path d="M20 3H4C3.46957 3 2.96086 3.21071 2.58578 3.58578C2.21071 3.96086 2 4.46957 2 5V15C2 15.5304 2.21071 16.0391 2.58578 16.4142C2.96086 16.7893 3.46957 17 4 17H16V21L19.2 17H20C20.5304 17 21.0391 16.7893 21.4142 16.4142C21.7893 16.0391 22 15.5304 22 15V5C22 4.46957 21.7893 3.96086 21.4142 3.58578C21.0391 3.21071 20.5304 3 20 3ZM21 15C21 15.2652 20.8946 15.5196 20.7071 15.7071C20.5196 15.8946 20.2652 16 20 16H18.72L18.42 16.38L17 18.15V16H4C3.73478 16 3.48043 15.8946 3.29289 15.7071C3.10536 15.5196 3 15.2652 3 15V5C3 4.73478 3.10536 4.48044 3.29289 4.29291C3.48043 4.10537 3.73478 4 4 4H20C20.2652 4 20.5196 4.10537 20.7071 4.29291C20.8946 4.48044 21 4.73478 21 5V15Z" fill="#2F3E39"/>
</svg>
