<svg width="24" height="24" viewBox="0 0 24 24" fill="none" xmlns="http://www.w3.org/2000/svg">
<path d="M19 13.76V4C19 3.46957 18.7893 2.96086 18.4142 2.58578C18.0391 2.21071 17.5304 2 17 2H5C4.46957 2 3.96086 2.21071 3.58578 2.58578C3.21071 2.96086 3 3.46957 3 4V20C3 20.5304 3.21071 21.0391 3.58578 21.4142C3.96086 21.7893 4.46957 22 5 22H16.25C16.3332 22.0055 16.4168 22.0055 16.5 22C17.4649 21.9995 18.4042 21.6888 19.1791 21.1138C19.954 20.5388 20.5235 19.7299 20.8037 18.8065C21.0838 17.8831 21.0598 16.8941 20.735 15.9855C20.4102 15.0768 19.802 14.2966 19 13.76ZM5 21C4.73478 21 4.48043 20.8946 4.29289 20.7071C4.10536 20.5196 4 20.2652 4 20V4C4 3.73478 4.10536 3.48044 4.29289 3.29291C4.48043 3.10537 4.73478 3 5 3H17C17.2652 3 17.5196 3.10537 17.7071 3.29291C17.8946 3.48044 18 3.73478 18 4V13.28C17.5202 13.0998 17.0125 13.0051 16.5 13C15.3073 13.0026 14.1643 13.4776 13.3209 14.3209C12.4776 15.1643 12.0026 16.3073 12 17.5C12.0017 18.1747 12.1565 18.8403 12.4527 19.4466C12.7489 20.0528 13.1788 20.584 13.71 21H5ZM16.5 21C15.8078 21 15.1311 20.7947 14.5555 20.4102C13.9799 20.0256 13.5313 19.4789 13.2664 18.8394C13.0015 18.1998 12.9322 17.4961 13.0672 16.8172C13.2023 16.1382 13.5356 15.5146 14.0251 15.0251C14.5146 14.5356 15.1383 14.2023 15.8172 14.0673C16.4961 13.9322 17.1998 14.0015 17.8394 14.2664C18.4789 14.5313 19.0256 14.9799 19.4101 15.5555C19.7947 16.1311 20 16.8078 20 17.5C20 18.4283 19.6312 19.3185 18.9749 19.9749C18.3185 20.6313 17.4283 21 16.5 21Z" fill="#2F3E39"/>
<path d="M15.9304 18.0794L14.8504 16.9994L14.1504 17.7094L15.9304 19.4894L18.8504 16.5694L18.1504 15.8594L15.9304 18.0794Z" fill="#2F3E39"/>
<path d="M16 6H6V7H16V6Z" fill="#2F3E39"/>
<path d="M16 9H6V10H16V9Z" fill="#2F3E39"/>
<path d="M12 12H6V13H12V12Z" fill="#2F3E39"/>
</svg>
