<svg width="24" height="24" viewBox="0 0 24 24" fill="none" xmlns="http://www.w3.org/2000/svg">
<path d="M16.75 8.5H9.25V9.5H16.75V8.5Z" fill="#2F3E39"/>
<path d="M16.75 11.5H9.25V12.5H16.75V11.5Z" fill="#2F3E39"/>
<path d="M16.75 14.5H9.25V15.5H16.75V14.5Z" fill="#2F3E39"/>
<path d="M17.88 5H17.5V4.6C17.5 3.72 16.77 3 15.88 3H6.12C5.23 3 4.5 3.72 4.5 4.6V17.4C4.5 18.28 5.23 19 6.12 19H6.5V19.4C6.5 20.28 7.23 21 8.12 21H16.25L19.5 17.8V6.6C19.5 5.72 18.77 5 17.88 5ZM6.12 18C5.78 18 5.5 17.73 5.5 17.4V4.6C5.5 4.27 5.78 4 6.12 4H15.88C16.22 4 16.5 4.27 16.5 4.6V5H8.12C7.22 5 6.5 5.72 6.5 6.6V18H6.12ZM16 19.84V18C16 17.69 16.16 17.5 16.25 17.5H18.38L16 19.84ZM18.5 16.5H16.25C15.55 16.5 15 17.16 15 18V20H8.12C7.78 20 7.5 19.73 7.5 19.4V6.6C7.5 6.27 7.78 6 8.12 6H17.88C18.22 6 18.5 6.27 18.5 6.6V16.5Z" fill="#2F3E39"/>
</svg>
