<svg width="24" height="24" viewBox="0 0 24 24" fill="none" xmlns="http://www.w3.org/2000/svg">
<path d="M4.5 20.5C4.5 21.6 5.4 22.5 6.5 22.5H18.5C19.6 22.5 20.5 21.6 20.5 20.5V4.5C20.5 3.4 19.6 2.5 18.5 2.5H8.5L4.5 6.5V20.5Z" fill="#F8F8F8"/>
<path d="M4.5 6.5H8.5V2.5L4.5 6.5Z" fill="#F8F8F8"/>
<path d="M15 8.5H7.5V9.5H15V8.5Z" fill="#DFDFDF"/>
<path d="M17.5 11.5H7.5V12.5H17.5V11.5Z" fill="#DFDFDF"/>
<path d="M17.5 14.5H7.5V15.5H17.5V14.5Z" fill="#DFDFDF"/>
<g filter="url(#filter0_d_9703_163369)">
<path d="M3.5 19.5C3.5 20.6 4.4 21.5 5.5 21.5H17.5C18.6 21.5 19.5 20.6 19.5 19.5V3.5C19.5 2.4 18.6 1.5 17.5 1.5H7.5L3.5 5.5V19.5Z" fill="white"/>
</g>
<path d="M3.5 5.5H7.5V1.5L3.5 5.5Z" fill="#C5EAFF"/>
<path d="M14 7.5H6.5V8.5H14V7.5Z" fill="#DFDFDF"/>
<path d="M16.5 10.5H6.5V11.5H16.5V10.5Z" fill="#DFDFDF"/>
<path d="M16.5 13.5H6.5V14.5H16.5V13.5Z" fill="#DFDFDF"/>
<defs>
<filter id="filter0_d_9703_163369" x="2.5" y="1.5" width="18" height="22" filterUnits="userSpaceOnUse" color-interpolation-filters="sRGB">
<feFlood flood-opacity="0" result="BackgroundImageFix"/>
<feColorMatrix in="SourceAlpha" type="matrix" values="0 0 0 0 0 0 0 0 0 0 0 0 0 0 0 0 0 0 127 0" result="hardAlpha"/>
<feOffset dy="1"/>
<feGaussianBlur stdDeviation="0.5"/>
<feComposite in2="hardAlpha" operator="out"/>
<feColorMatrix type="matrix" values="0 0 0 0 0 0 0 0 0 0 0 0 0 0 0 0 0 0 0.06 0"/>
<feBlend mode="normal" in2="BackgroundImageFix" result="effect1_dropShadow_9703_163369"/>
<feBlend mode="normal" in="SourceGraphic" in2="effect1_dropShadow_9703_163369" result="shape"/>
</filter>
</defs>
</svg>
