<svg width="24" height="24" viewBox="0 0 24 24" fill="none" xmlns="http://www.w3.org/2000/svg">
<g clip-path="url(#clip0_10429_174586)">
<path d="M19.66 2.88C19.52 2.67 19.33 2.48 19.12 2.34C18.8 2.12 18.42 2 18 2H6C4.9 2 4 2.9 4 4V20C4 21.1 4.9 22 6 22H16L18 20L20 18V4C20 3.59 19.87 3.2 19.66 2.88ZM17 15H7V14H17V15ZM17 11H7V10H17V11ZM17 7H7V6H17V7Z" fill="#2F3E39"/>
</g>
<defs>
<clipPath id="clip0_10429_174586">
<rect width="16" height="20" fill="white" transform="translate(4 2)"/>
</clipPath>
</defs>
</svg>
