<svg width="24" height="24" viewBox="0 0 24 24" fill="none" xmlns="http://www.w3.org/2000/svg">
<path d="M18 2H6C5.46957 2 4.96086 2.21071 4.58578 2.58578C4.21071 2.96086 4 3.46957 4 4V20C4 20.5304 4.21071 21.0391 4.58578 21.4142C4.96086 21.7893 5.46957 22 6 22H16L20 18V4C20 3.46957 19.7893 2.96086 19.4142 2.58578C19.0391 2.21071 18.5304 2 18 2ZM5 20V4C5 3.73478 5.10536 3.48044 5.29289 3.29291C5.48043 3.10537 5.73478 3 6 3H18C18.2652 3 18.5196 3.10537 18.7071 3.29291C18.8946 3.48044 19 3.73478 19 4V17H16.5C16.1022 17 15.7206 17.158 15.4393 17.4393C15.158 17.7206 15 18.1022 15 18.5V21H6C5.73478 21 5.48043 20.8946 5.29289 20.7071C5.10536 20.5196 5 20.2652 5 20ZM18.59 18L16 20.59V18.5C16 18.3674 16.0527 18.2402 16.1464 18.1465C16.2402 18.0527 16.3674 18 16.5 18H18.59Z" fill="#2F3E39"/>
<path d="M17 6H7V7H17V6Z" fill="#2F3E39"/>
<path d="M17 10H7V11H17V10Z" fill="#2F3E39"/>
<path d="M17 14H7V15H17V14Z" fill="#2F3E39"/>
</svg>
