<svg width="24" height="24" viewBox="0 0 24 24" fill="none" xmlns="http://www.w3.org/2000/svg">
<g clip-path="url(#clip0_9703_163320)">
<path d="M19.2002 5.03873L18.9502 4.78873C18.7645 4.60277 18.5439 4.45526 18.3011 4.35461C18.0583 4.25397 17.798 4.20215 17.5352 4.20215C17.2724 4.20215 17.0121 4.25397 16.7693 4.35461C16.5265 4.45526 16.3059 4.60277 16.1202 4.78873L4.79019 16.1287C4.60302 16.3148 4.45453 16.536 4.35327 16.7798C4.25201 17.0235 4.19999 17.2848 4.2002 17.5487V19.7987H6.4502C6.71411 19.7989 6.97545 19.7469 7.21916 19.6457C7.46288 19.5444 7.68414 19.3959 7.87019 19.2087L17.8002 9.27875L18.5002 8.57874L19.2102 7.86874C19.3955 7.68234 19.5422 7.46123 19.642 7.21808C19.7418 6.97493 19.7927 6.71449 19.7918 6.45166C19.7908 6.18883 19.7381 5.92875 19.6366 5.68631C19.5351 5.44387 19.3868 5.22382 19.2002 5.03873ZM7.2002 18.5087C7.10676 18.6014 6.99594 18.6748 6.8741 18.7245C6.75226 18.7743 6.6218 18.7995 6.4902 18.7987H5.2002V17.5487C5.19943 17.4171 5.22466 17.2867 5.27442 17.1648C5.32419 17.043 5.39752 16.9322 5.4902 16.8387L15.4202 6.90872L17.0902 8.57874L7.2002 18.5087ZM18.5402 7.15872L17.8402 7.86874L16.1702 6.19873L16.8802 5.49875C17.0676 5.3125 17.321 5.20795 17.5852 5.20795C17.8494 5.20795 18.1028 5.3125 18.2902 5.49875L18.5402 5.74875C18.7212 5.94135 18.8186 6.19779 18.8112 6.46201C18.8037 6.72622 18.6919 6.9767 18.5002 7.15872H18.5402Z" fill="current"/>
</g>
<defs>
<clipPath id="clip0_9703_163320">
<rect width="15.6" height="15.6" fill="white" transform="translate(4.2002 4.19922)"/>
</clipPath>
</defs>
</svg>
