<svg width="24" height="24" viewBox="0 0 24 24" fill="none" xmlns="http://www.w3.org/2000/svg">
<path d="M20 5H4C3.46957 5 2.96086 5.21071 2.58578 5.58578C2.21071 5.96086 2 6.46957 2 7V17C2 17.5304 2.21071 18.0391 2.58578 18.4142C2.96086 18.7893 3.46957 19 4 19H20C20.5304 19 21.0391 18.7893 21.4142 18.4142C21.7893 18.0391 22 17.5304 22 17V7C22 6.46957 21.7893 5.96086 21.4142 5.58578C21.0391 5.21071 20.5304 5 20 5ZM17.59 6L12 11.59L6.41 6H17.59ZM21 17C21 17.2652 20.8946 17.5196 20.7071 17.7071C20.5196 17.8946 20.2652 18 20 18H4C3.73478 18 3.48043 17.8946 3.29289 17.7071C3.10536 17.5196 3 17.2652 3 17V7C3 6.73478 3.10536 6.48044 3.29289 6.29291C3.48043 6.10537 3.73478 6 4 6H5L12 13L19 6H20C20.2652 6 20.5196 6.10537 20.7071 6.29291C20.8946 6.48044 21 6.73478 21 7V17Z" fill="#2F3E39"/>
</svg>
