<svg width="24" height="24" viewBox="0 0 24 24" fill="none" xmlns="http://www.w3.org/2000/svg">
<g clip-path="url(#clip0_9703_163334)">
<path d="M13.6487 6.41172L12.5003 7.55172V3.51172H11.5017V7.55172L10.3633 6.41172L9.6543 7.11172L12.001 9.47172L14.3577 7.11172L13.6487 6.41172Z" fill="#2F3E39"/>
<path d="M17.1439 10.4922H6.86829C6.3386 10.4922 5.83061 10.7029 5.45606 11.078C5.08151 11.453 4.87109 11.9618 4.87109 12.4922V18.4922C4.87109 19.0226 5.08151 19.5313 5.45606 19.9064C5.83061 20.2815 6.3386 20.4922 6.86829 20.4922H17.1439C17.6736 20.4922 18.1816 20.2815 18.5561 19.9064C18.9307 19.5313 19.1411 19.0226 19.1411 18.4922V12.4922C19.1411 11.9618 18.9307 11.453 18.5561 11.078C18.1816 10.7029 17.6736 10.4922 17.1439 10.4922ZM15.3064 11.4922L12.0111 14.7922L8.70572 11.4922H15.3064ZM18.1425 18.4922C18.1425 18.7574 18.0373 19.0117 17.85 19.1993C17.6627 19.3868 17.4087 19.4922 17.1439 19.4922H6.86829C6.60345 19.4922 6.34944 19.3868 6.16216 19.1993C5.97489 19.0117 5.86969 18.7574 5.86969 18.4922V12.4922C5.86969 12.227 5.97489 11.9726 6.16216 11.7851C6.34944 11.5976 6.60345 11.4922 6.86829 11.4922H7.29769L11.7714 15.9722C11.8025 16.0043 11.8398 16.0296 11.881 16.0468C11.9222 16.064 11.9665 16.0726 12.0111 16.0722C12.0541 16.0719 12.0967 16.0628 12.1361 16.0457C12.1756 16.0285 12.2112 16.0035 12.2407 15.9722L16.7145 11.4922H17.1439C17.4087 11.4922 17.6627 11.5976 17.85 11.7851C18.0373 11.9726 18.1425 12.227 18.1425 12.4922V18.4922Z" fill="#2F3E39"/>
</g>
<defs>
<clipPath id="clip0_9703_163334">
<rect width="14.27" height="16.98" fill="white" transform="translate(4.87109 3.51172)"/>
</clipPath>
</defs>
</svg>
