<svg width="24" height="24" viewBox="0 0 24 24" fill="none" xmlns="http://www.w3.org/2000/svg">
<path d="M18.0127 7.36028L17.3027 8.07027L19.9827 10.7503H13.4227V6.65027C13.4479 6.11596 13.2844 5.58982 12.9608 5.16388C12.6372 4.73794 12.1742 4.43933 11.6527 4.32027L9.92271 4.01027H13.4927C13.8428 4.01027 14.1785 4.14933 14.4261 4.39688C14.6736 4.64443 14.8127 4.98019 14.8127 5.33028V8.51027H15.8127V5.32027C15.8127 4.70497 15.5683 4.11486 15.1332 3.67978C14.6981 3.2447 14.108 3.00028 13.4927 3.00028H4.2627C3.76712 2.9919 3.28731 3.17451 2.92271 3.51027C2.51162 3.85994 2.23278 4.33994 2.1327 4.87027C2.10074 5.03168 2.08401 5.19574 2.08271 5.36028V17.3603C2.05709 17.8932 2.21919 18.4182 2.54078 18.844C2.86237 19.2697 3.32309 19.5692 3.84272 19.6903L11.0227 20.9703H11.3627C11.822 20.9674 12.2652 20.8007 12.6127 20.5003C12.9334 20.2191 13.1718 19.8562 13.3027 19.4503H13.5027C14.8127 19.4503 15.8227 17.9603 15.8227 16.6703V13.9403H14.8227V16.6703C14.8227 17.4503 14.1827 18.4503 13.5027 18.4503H13.4527V11.7103H20.0127L17.3327 14.3903L18.0427 15.1003L21.9227 11.2103L18.0127 7.36028Z" fill="#2F3E39"/>
</svg>
