<svg width="24" height="24" viewBox="0 0 24 24" fill="none" xmlns="http://www.w3.org/2000/svg">
<g clip-path="url(#clip0_9703_163327)">
<path d="M6.00005 9H5.00005C4.88959 9 4.80005 9.08954 4.80005 9.2V10.2C4.80005 10.3105 4.88959 10.4 5.00005 10.4H6.00005C6.11051 10.4 6.20005 10.3105 6.20005 10.2V9.2C6.20005 9.08954 6.11051 9 6.00005 9Z" fill="#2F3E39"/>
<path d="M6.00005 11.7998H5.00005C4.88959 11.7998 4.80005 11.8893 4.80005 11.9998V12.9998C4.80005 13.1103 4.88959 13.1998 5.00005 13.1998H6.00005C6.11051 13.1998 6.20005 13.1103 6.20005 12.9998V11.9998C6.20005 11.8893 6.11051 11.7998 6.00005 11.7998Z" fill="#2F3E39"/>
<path d="M9.50005 9H8.50005C8.38959 9 8.30005 9.08954 8.30005 9.2V10.2C8.30005 10.3105 8.38959 10.4 8.50005 10.4H9.50005C9.61051 10.4 9.70005 10.3105 9.70005 10.2V9.2C9.70005 9.08954 9.61051 9 9.50005 9Z" fill="#2F3E39"/>
<path d="M16 8.08V5.39999C16 4.86956 15.7893 4.36085 15.4142 3.98578C15.0391 3.61071 14.5304 3.39999 14 3.39999H12.65V2H11.65V3.39999H6.35001V2H5.35001V3.39999H4C3.46957 3.39999 2.96086 3.61071 2.58578 3.98578C2.21071 4.36085 2 4.86956 2 5.39999V13.3C2 13.8304 2.21071 14.3391 2.58578 14.7142C2.96086 15.0893 3.46957 15.3 4 15.3H8C8.05557 16.6279 8.48802 17.9125 9.2468 19.0037C10.0056 20.0949 11.0593 20.9475 12.2848 21.4618C13.5103 21.9762 14.8569 22.1311 16.1671 21.9083C17.4774 21.6855 18.6972 21.0944 19.6838 20.2039C20.6705 19.3135 21.3832 18.1605 21.7388 16.8799C22.0943 15.5993 22.0779 14.2439 21.6915 12.9723C21.3051 11.7006 20.5647 10.5652 19.5568 9.69888C18.5489 8.83254 17.3153 8.27103 16 8.08ZM3 5.39999C3 5.13478 3.10537 4.88042 3.29291 4.69289C3.48044 4.50535 3.73478 4.39999 4 4.39999H5.35001V5.5H6.35001V4.39999H11.65V5.5H12.65V4.39999H14C14.2652 4.39999 14.5196 4.50535 14.7071 4.69289C14.8946 4.88042 15 5.13478 15 5.39999V6.60001H3V5.39999ZM8.78 11.8H8.5C8.44696 11.8 8.39609 11.8211 8.35858 11.8586C8.32107 11.8961 8.29999 11.947 8.29999 12V13C8.16645 13.4295 8.07931 13.872 8.04001 14.32H4.04001C3.77479 14.32 3.52042 14.2146 3.33289 14.0271C3.14535 13.8396 3.04001 13.5852 3.04001 13.32V7.92H15.04V8.02C13.7495 8.0118 12.4819 8.3605 11.3772 9.02757C10.2724 9.69464 9.37361 10.6541 8.78 11.8ZM19.46 16.06L18.94 15.54C18.7707 16.4842 18.2677 17.3362 17.5227 17.9406C16.7777 18.5449 15.8403 18.8614 14.8815 18.8323C13.9226 18.8032 13.0061 18.4305 12.2991 17.7821C11.5921 17.1337 11.1417 16.2528 11.03 15.3C11.03 15.2 11.03 15.1 11.03 15C11.0419 14.1426 11.3216 13.3105 11.83 12.62C12.1974 12.1236 12.6749 11.719 13.2249 11.4379C13.7748 11.1569 14.3824 11.007 15 11V12C14.3475 11.999 13.7135 12.2174 13.2 12.62C12.9779 12.7822 12.7822 12.9778 12.62 13.2C12.367 13.5247 12.1863 13.8998 12.09 14.3C12.0348 14.5294 12.0047 14.7641 12 15C12 15.1 12 15.2 12 15.3C12.0912 16.0116 12.4344 16.6669 12.9673 17.1472C13.5002 17.6274 14.1876 17.9008 14.9048 17.9178C15.6221 17.9347 16.3216 17.694 16.8766 17.2395C17.4316 16.7849 17.8053 16.1465 17.93 15.44L17.31 16.06L16.6 15.35L18.37 13.59L20.14 15.35L19.46 16.06Z" fill="#2F3E39"/>
</g>
<defs>
<clipPath id="clip0_9703_163327">
<rect width="20" height="20" fill="white" transform="translate(2 2)"/>
</clipPath>
</defs>
</svg>
