<svg width="24" height="24" viewBox="0 0 24 24" fill="none" xmlns="http://www.w3.org/2000/svg">
<g clip-path="url(#clip0_9703_163322)">
<path d="M21.772 11.6845C20.4503 10.0496 18.8648 8.65324 17.0829 7.55453L19.2547 5.34454L18.5637 4.64453L16.1747 7.05453C14.8799 6.38572 13.4522 6.02328 11.999 5.99454C6.63871 5.99454 2.40377 11.4545 2.22608 11.6845L1.99902 11.9945L2.22608 12.3045C3.54778 13.9394 5.1332 15.3358 6.91512 16.4345L4.74334 18.6445L5.43437 19.3445L7.8233 16.9345C9.11811 17.6034 10.5459 17.9658 11.999 17.9945C17.3593 17.9945 21.5943 12.5345 21.772 12.3045L21.999 11.9945L21.772 11.6845ZM3.2626 11.9945C4.24976 10.8645 7.81344 6.99454 11.999 6.99454C13.1888 7.01591 14.3603 7.29554 15.4344 7.81454L14.0622 9.20453C13.4691 8.74669 12.7447 8.49741 11.999 8.49454C11.0827 8.49454 10.2039 8.86328 9.5559 9.51965C8.90795 10.176 8.54394 11.0663 8.54394 11.9945C8.54678 12.7499 8.79285 13.4837 9.24482 14.0845L7.63574 15.7045C5.98909 14.7162 4.5121 13.4632 3.2626 11.9945ZM14.4669 11.9945C14.4669 12.6576 14.2069 13.2935 13.7441 13.7623C13.2813 14.2311 12.6536 14.4945 11.999 14.4945C11.5135 14.4968 11.0387 14.3504 10.6367 14.0745L14.0523 10.6145C14.3247 11.0217 14.4692 11.5027 14.4669 11.9945ZM9.53111 11.9945C9.53111 11.3315 9.79112 10.6956 10.2539 10.2268C10.7168 9.75794 11.3445 9.49454 11.999 9.49454C12.4845 9.49226 12.9594 9.63867 13.3613 9.91455L9.94573 13.3745C9.67339 12.9674 9.52886 12.4864 9.53111 11.9945ZM11.999 16.9945C10.8092 16.9732 9.63774 16.6935 8.56367 16.1745L9.93585 14.7845C10.529 15.2424 11.2533 15.4917 11.999 15.4945C12.9154 15.4945 13.7942 15.1258 14.4421 14.4694C15.0901 13.813 15.4541 12.9228 15.4541 11.9945C15.4513 11.2392 15.2052 10.5054 14.7532 9.90454L16.3623 8.28455C18.009 9.27285 19.4859 10.5259 20.7355 11.9945C19.7779 13.1245 16.1846 16.9945 11.999 16.9945Z" fill="#2F3E39"/>
</g>
<defs>
<clipPath id="clip0_9703_163322">
<rect width="20.26" height="14.71" fill="white" transform="translate(1.87012 4.64453)"/>
</clipPath>
</defs>
</svg>
