<svg width="24" height="24" viewBox="0 0 24 24" fill="none" xmlns="http://www.w3.org/2000/svg">
<g clip-path="url(#clip0_9703_163321)">
<path d="M12.13 15.5C14.063 15.5 15.63 13.933 15.63 12C15.63 10.067 14.063 8.5 12.13 8.5C10.197 8.5 8.63 10.067 8.63 12C8.63 13.933 10.197 15.5 12.13 15.5Z" fill="#2F3E39"/>
<path d="M12.13 18C6.7 18 2.41 12.54 2.23 12.31L2 12L2.23 11.69C2.41 11.46 6.7 6 12.13 6C17.56 6 21.85 11.46 22.03 11.69L22.26 12L22.03 12.31C21.85 12.54 17.56 18 12.13 18ZM3.28 12C4.28 13.13 7.89 17 12.13 17C16.37 17 20.01 13.13 20.98 12C19.98 10.87 16.37 7 12.13 7C7.89 7 4.25 10.87 3.28 12Z" fill="#2F3E39"/>
</g>
<defs>
<clipPath id="clip0_9703_163321">
<rect width="20.26" height="12" fill="white" transform="translate(2 6)"/>
</clipPath>
</defs>
</svg>
