<svg width="24" height="24" viewBox="0 0 24 24" fill="none" xmlns="http://www.w3.org/2000/svg">
<path d="M21.23 3.90027L21.1 3.77026C20.8098 3.48324 20.4181 3.32227 20.01 3.32227C19.6018 3.32227 19.2102 3.48324 18.92 3.77026L15.69 7.00027H4C3.46957 7.00027 2.96086 7.21099 2.58578 7.58606C2.21071 7.96113 2 8.46984 2 9.00027V16.0003C2 16.5307 2.21071 17.0394 2.58578 17.4145C2.96086 17.7896 3.46957 18.0003 4 18.0003V21.0603L7.71001 18.0003H17C17.5304 18.0003 18.0391 17.7896 18.4142 17.4145C18.7893 17.0394 19 16.5307 19 16.0003V8.31027L21.23 6.08026C21.517 5.79008 21.678 5.39841 21.678 4.99026C21.678 4.58212 21.517 4.19045 21.23 3.90027ZM20.01 4.32028C20.1526 4.32232 20.2889 4.3797 20.39 4.48029L20.52 4.61026C20.6202 4.71138 20.6763 4.84795 20.6763 4.99026C20.6763 5.13258 20.6202 5.26915 20.52 5.37027L20.02 5.87027L19.13 4.98029L19.63 4.48029C19.7274 4.3803 19.8604 4.3228 20 4.32028H20.01ZM19.49 6.41028L12.05 13.8403C12.0006 13.891 11.9415 13.9313 11.8762 13.9587C11.8109 13.9862 11.7408 14.0003 11.67 14.0003H11V13.3303C10.9999 13.2594 11.0141 13.1894 11.0415 13.1241C11.069 13.0588 11.1093 12.9997 11.16 12.9503L18.59 5.51028L19.49 6.41028ZM18 16.0003C18 16.2655 17.8946 16.5198 17.7071 16.7074C17.5196 16.8949 17.2652 17.0003 17 17.0003H7.35001L5 18.9403V17.0003H4C3.73478 17.0003 3.48043 16.8949 3.29289 16.7074C3.10536 16.5198 3 16.2655 3 16.0003V9.00027C3 8.73506 3.10536 8.48072 3.29289 8.29318C3.48043 8.10565 3.73478 8.00027 4 8.00027H14.69L10.45 12.2403C10.3071 12.3835 10.1937 12.5535 10.1165 12.7405C10.0393 12.9275 9.99972 13.1279 10 13.3303V15.0003H11.67C11.8723 15.0006 12.0728 14.9609 12.2598 14.8837C12.4468 14.8065 12.6168 14.6932 12.76 14.5503L18 9.31027V16.0003Z" fill="#2F3E39"/>
</svg>
