<svg width="24" height="24" viewBox="0 0 24 24" fill="none" xmlns="http://www.w3.org/2000/svg">
<path d="M18 2H6C5.46957 2 4.96086 2.21071 4.58578 2.58578C4.21071 2.96086 4 3.46957 4 4V20C4 20.5304 4.21071 21.0391 4.58578 21.4142C4.96086 21.7893 5.46957 22 6 22H16L20 18V4C20 3.46957 19.7893 2.96086 19.4142 2.58578C19.0391 2.21071 18.5304 2 18 2ZM16 20.59V18.5C16 18.3674 16.0527 18.2402 16.1465 18.1465C16.2402 18.0527 16.3674 18 16.5 18H18.59L16 20.59ZM19 17H16.5C16.1022 17 15.7207 17.158 15.4393 17.4393C15.158 17.7206 15 18.1022 15 18.5V21H6C5.73478 21 5.48043 20.8946 5.29289 20.7071C5.10536 20.5196 5 20.2652 5 20V4C5 3.73478 5.10536 3.48044 5.29289 3.29291C5.48043 3.10537 5.73478 3 6 3H18C18.2652 3 18.5196 3.10537 18.7071 3.29291C18.8946 3.48044 19 3.73478 19 4V17Z" fill="#2F3E39"/>
<path d="M15.8504 8.85039L15.1504 8.15039L12.0004 11.2904L8.85039 8.15039L8.15039 8.85039L11.2904 12.0004L8.15039 15.1504L8.85039 15.8504L12.0004 12.7104L15.1504 15.8504L15.8504 15.1504L12.7104 12.0004L15.8504 8.85039Z" fill="#2F3E39"/>
</svg>
