<svg width="24" height="24" viewBox="0 0 24 24" fill="none" xmlns="http://www.w3.org/2000/svg">
<g clip-path="url(#clip0_9703_163331)">
<path d="M9.5 6C9.63261 6 9.75979 6.05269 9.85355 6.14645C9.94732 6.24022 10 6.36739 10 6.5V8.5C10 8.63261 9.94732 8.75978 9.85355 8.85355C9.75979 8.94731 9.63261 9 9.5 9H7.5C7.36739 9 7.24021 8.94731 7.14645 8.85355C7.05268 8.75978 7 8.63261 7 8.5V6.5C7 6.36739 7.05268 6.24022 7.14645 6.14645C7.24021 6.05269 7.36739 6 7.5 6H9.5ZM9.5 5H7.5C7.10218 5 6.72064 5.15803 6.43934 5.43933C6.15803 5.72064 6 6.10218 6 6.5V7H2V8H6V8.5C6 8.89782 6.15803 9.27936 6.43934 9.56067C6.72064 9.84197 7.10218 10 7.5 10H9.5C9.89782 10 10.2794 9.84197 10.5607 9.56067C10.842 9.27936 11 8.89782 11 8.5V8H22V7H11V6.5C11 6.10218 10.842 5.72064 10.5607 5.43933C10.2794 5.15803 9.89782 5 9.5 5Z" fill="#2F3E39"/>
<path d="M16.5 15C16.6326 15 16.7598 15.0527 16.8536 15.1465C16.9473 15.2402 17 15.3674 17 15.5V17.5C17 17.6326 16.9473 17.7598 16.8536 17.8535C16.7598 17.9473 16.6326 18 16.5 18H14.5C14.3674 18 14.2402 17.9473 14.1464 17.8535C14.0527 17.7598 14 17.6326 14 17.5V15.5C14 15.3674 14.0527 15.2402 14.1464 15.1465C14.2402 15.0527 14.3674 15 14.5 15H16.5ZM16.5 14H14.5C14.1022 14 13.7206 14.158 13.4393 14.4393C13.158 14.7206 13 15.1022 13 15.5V16H2V17H13V17.5C13 17.8978 13.158 18.2794 13.4393 18.5607C13.7206 18.842 14.1022 19 14.5 19H16.5C16.8978 19 17.2794 18.842 17.5607 18.5607C17.842 18.2794 18 17.8978 18 17.5V17H22V16H18V15.5C18 15.1022 17.842 14.7206 17.5607 14.4393C17.2794 14.158 16.8978 14 16.5 14Z" fill="#2F3E39"/>
</g>
<defs>
<clipPath id="clip0_9703_163331">
<rect width="20" height="14" fill="white" transform="translate(2 5)"/>
</clipPath>
</defs>
</svg>
