<svg width="24" height="24" viewBox="0 0 24 24" fill="none" xmlns="http://www.w3.org/2000/svg">
<g clip-path="url(#clip0_9703_163329)">
<path d="M20 4H4C3.46957 4 2.96086 4.21071 2.58578 4.58578C2.21071 4.96086 2 5.46957 2 6V18C2 18.5304 2.21071 19.0391 2.58578 19.4142C2.96086 19.7893 3.46957 20 4 20H20C20.5304 20 21.0391 19.7893 21.4142 19.4142C21.7893 19.0391 22 18.5304 22 18V6C22 5.46957 21.7893 4.96086 21.4142 4.58578C21.0391 4.21071 20.5304 4 20 4ZM4 5H20C20.2652 5 20.5196 5.10537 20.7071 5.29291C20.8946 5.48044 21 5.73478 21 6V14.76L15.52 8.76001L9.52 14.76L6.52 11.76L3.02 15.26V6C3.01995 5.73821 3.12255 5.48684 3.30579 5.29987C3.48902 5.11289 3.73827 5.00524 4 5ZM20 19H4C3.73478 19 3.48043 18.8946 3.29289 18.7071C3.10536 18.5196 3 18.2652 3 18V16.71L6.5 13.21L9.5 16.21L15.5 10.21L20.99 16.21V18C20.99 18.2635 20.886 18.5163 20.7007 18.7036C20.5153 18.8908 20.2635 18.9974 20 19Z" fill="#2F3E39"/>
<path d="M9 11C9.39556 11 9.78225 10.8827 10.1111 10.6629C10.44 10.4432 10.6964 10.1308 10.8478 9.76538C10.9991 9.39993 11.0387 8.9978 10.9616 8.60984C10.8844 8.22187 10.6939 7.86549 10.4142 7.58579C10.1345 7.30608 9.77814 7.1156 9.39018 7.03843C9.00222 6.96125 8.60009 7.00088 8.23463 7.15226C7.86918 7.30363 7.55683 7.55996 7.33707 7.88886C7.1173 8.21776 7 8.60444 7 9C7 9.53044 7.21071 10.0391 7.58578 10.4142C7.96086 10.7893 8.46957 11 9 11ZM9 8C9.19778 8 9.39112 8.05864 9.55557 8.16852C9.72002 8.2784 9.84819 8.43459 9.92387 8.61731C9.99956 8.80004 10.0194 9.00112 9.98079 9.1951C9.9422 9.38908 9.84696 9.56724 9.70711 9.7071C9.56726 9.84695 9.38906 9.94219 9.19508 9.98078C9.0011 10.0194 8.80004 9.99958 8.61731 9.92389C8.43458 9.84821 8.27841 9.72003 8.16853 9.55558C8.05865 9.39113 8 9.19779 8 9C8 8.73479 8.10536 8.48045 8.29289 8.29291C8.48043 8.10538 8.73478 8 9 8Z" fill="#2F3E39"/>
</g>
<defs>
<clipPath id="clip0_9703_163329">
<rect width="20" height="16" fill="white" transform="translate(2 4)"/>
</clipPath>
</defs>
</svg>
