<svg width="24" height="24" viewBox="0 0 24 24" fill="none" xmlns="http://www.w3.org/2000/svg">
<g clip-path="url(#clip0_9703_163354)">
<path d="M20.25 9.60001L12 3L3.75 9.60001C3.51613 9.78725 3.32731 10.0247 3.19749 10.2947C3.06768 10.5647 3.00019 10.8604 3 11.16V19C3 19.5304 3.21071 20.0391 3.58578 20.4142C3.96086 20.7893 4.46957 21 5 21H19C19.5304 21 20.0391 20.7893 20.4142 20.4142C20.7893 20.0391 21 19.5304 21 19V11.16C20.9998 10.8604 20.9323 10.5647 20.8025 10.2947C20.6727 10.0247 20.4839 9.78725 20.25 9.60001ZM9 20V15H15V20H9ZM20 19C20 19.2652 19.8946 19.5196 19.7071 19.7071C19.5196 19.8947 19.2652 20 19 20H16V14H8V20H5C4.73478 20 4.48043 19.8947 4.29289 19.7071C4.10536 19.5196 4 19.2652 4 19V11.16C4.00069 11.0098 4.03521 10.8617 4.101 10.7267C4.16678 10.5916 4.26214 10.4731 4.38 10.38L12 4.28L19.63 10.38C19.746 10.4741 19.8395 10.593 19.9035 10.728C19.9675 10.863 20.0005 11.0106 20 11.16V19Z" fill="#2F3E39"/>
</g>
<defs>
<clipPath id="clip0_9703_163354">
<rect width="18" height="18" fill="white" transform="translate(3 3)"/>
</clipPath>
</defs>
</svg>
