<svg width="24" height="24" viewBox="0 0 24 24" fill="none" xmlns="http://www.w3.org/2000/svg">
<path d="M19.7778 5.31354C18.8401 4.37619 17.5686 3.84961 16.2428 3.84961C14.9169 3.84961 13.6454 4.37619 12.7078 5.31354L11.9978 6.02354L11.2878 5.31354C10.3489 4.376 9.07606 3.84982 7.74924 3.85076C6.42242 3.8517 5.15031 4.37968 4.21277 5.31854C3.27523 6.25741 2.74906 7.53026 2.75 8.85708C2.75094 10.1839 3.27891 11.456 4.21777 12.3935L8.45777 16.6335L11.9978 20.1635L19.7778 12.3935C20.2434 11.9291 20.6128 11.3773 20.8649 10.7699C21.117 10.1624 21.2467 9.51122 21.2467 8.85354C21.2467 8.19587 21.117 7.54466 20.8649 6.93721C20.6128 6.32975 20.2434 5.778 19.7778 5.31354Z" fill="#2F3E39"/>
</svg>
