<svg width="24" height="24" viewBox="0 0 24 24" fill="none" xmlns="http://www.w3.org/2000/svg">
<path d="M16.2378 4.85239C17.0293 4.85177 17.8033 5.08603 18.4617 5.52551C19.1201 5.96499 19.6332 6.58994 19.9363 7.32123C20.2393 8.05252 20.3185 8.85728 20.1639 9.63362C20.0093 10.41 19.6278 11.123 19.0678 11.6824L11.9978 18.7524L9.16779 15.9224L4.92777 11.6824C4.1772 10.9318 3.75556 9.91385 3.75556 8.85239C3.75556 7.79094 4.1772 6.77296 4.92777 6.02239C5.67833 5.27183 6.69633 4.85017 7.75778 4.85017C8.81924 4.85017 9.83721 5.27183 10.5878 6.02239L11.2878 6.73239L11.9978 7.44239L12.7078 6.73239L13.4078 6.02239C13.7795 5.65105 14.2208 5.3566 14.7064 5.15585C15.1919 4.95509 15.7123 4.85198 16.2378 4.85239ZM16.2378 3.85239C14.9142 3.85267 13.6448 4.3777 12.7078 5.31239L11.9978 6.02239L11.2878 5.31239C10.8229 4.84817 10.2711 4.48006 9.664 4.22907C9.05686 3.97809 8.40621 3.84915 7.74924 3.84961C7.09226 3.85007 6.44181 3.97994 5.83502 4.23178C5.22824 4.48362 4.67699 4.85251 4.21277 5.31739C3.74855 5.78227 3.38044 6.33404 3.12946 6.94118C2.87847 7.54832 2.74954 8.19895 2.75 8.85593C2.75047 9.5129 2.88033 10.1634 3.13217 10.7701C3.38402 11.3769 3.7529 11.9282 4.21777 12.3924L8.45777 16.6324L11.9978 20.1624L19.7778 12.3924C20.2434 11.9279 20.6128 11.3762 20.8649 10.7687C21.117 10.1613 21.2467 9.51006 21.2467 8.85239C21.2467 8.19472 21.117 7.54351 20.8649 6.93606C20.6128 6.3286 20.2434 5.77685 19.7778 5.31239C19.3126 4.84837 18.7605 4.48059 18.1531 4.23008C17.5457 3.97956 16.8948 3.85122 16.2378 3.85239Z" fill="#2F3E39"/>
</svg>
