<svg width="24" height="24" viewBox="0 0 24 24" fill="none" xmlns="http://www.w3.org/2000/svg">
<path d="M14 20V19C15.3261 19 16.5979 18.4732 17.5355 17.5355C18.4732 16.5978 19 15.3261 19 14H20C20 15.5913 19.3679 17.1174 18.2426 18.2426C17.1174 19.3679 15.5913 20 14 20Z" fill="#2F3E39"/>
<path d="M18.45 7.57053C18.9578 7.1661 19.3273 6.61379 19.5073 5.99008C19.6873 5.36637 19.6689 4.70213 19.4547 4.08932C19.2405 3.47652 18.841 2.9455 18.3116 2.56976C17.7823 2.19403 17.1492 1.99219 16.5 1.99219C15.8508 1.99219 15.2177 2.19403 14.6884 2.56976C14.159 2.9455 13.7595 3.47652 13.5453 4.08932C13.3311 4.70213 13.3127 5.36637 13.4927 5.99008C13.6727 6.61379 14.0422 7.1661 14.55 7.57053C13.517 7.91775 12.6189 8.58016 11.9821 9.46454C11.3452 10.3489 11.0018 11.4107 11 12.5005V13.0005H22V12.5005C21.9982 11.4107 21.6548 10.3489 21.0179 9.46454C20.3811 8.58016 19.483 7.91775 18.45 7.57053ZM16.45 3.00052C16.8713 3.00052 17.2831 3.12545 17.6334 3.3595C17.9836 3.59354 18.2566 3.92619 18.4179 4.3154C18.5791 4.70461 18.6213 5.13287 18.5391 5.54605C18.4569 5.95923 18.254 6.33877 17.9561 6.63666C17.6583 6.93454 17.2787 7.13742 16.8655 7.2196C16.4524 7.30179 16.0241 7.2596 15.6349 7.09839C15.2457 6.93717 14.913 6.66415 14.679 6.31387C14.4449 5.9636 14.32 5.5518 14.32 5.13052C14.3199 4.84655 14.3766 4.56542 14.4868 4.30368C14.5969 4.04194 14.7583 3.80487 14.9614 3.60641C15.1645 3.40796 15.4053 3.25213 15.6695 3.14807C15.9337 3.04402 16.2161 2.99385 16.5 3.00052H16.45ZM12 12.0005C12.1245 10.9708 12.6212 10.0221 13.3967 9.33319C14.1721 8.64431 15.1727 8.2628 16.21 8.26053H16.73C17.7776 8.24804 18.7928 8.62291 19.5809 9.31317C20.369 10.0034 20.8744 10.9604 21 12.0005H12Z" fill="#2F3E39"/>
<path d="M9.45 16.5705C9.95778 16.1661 10.3273 15.6138 10.5073 14.9901C10.6873 14.3664 10.6689 13.7021 10.4547 13.0893C10.2405 12.4765 9.84101 11.9455 9.31164 11.5698C8.78226 11.194 8.14916 10.9922 7.5 10.9922C6.85084 10.9922 6.21774 11.194 5.68836 11.5698C5.15899 11.9455 4.75954 12.4765 4.54533 13.0893C4.33111 13.7021 4.31273 14.3664 4.49274 14.9901C4.67274 15.6138 5.04222 16.1661 5.55 16.5705C4.517 16.9178 3.61889 17.5802 2.98206 18.4645C2.34524 19.3489 2.00177 20.4107 2 21.5005V22.0005H13V21.5005C12.9982 20.4107 12.6548 19.3489 12.0179 18.4645C11.3811 17.5802 10.483 16.9178 9.45 16.5705ZM7.45 12.0005C7.87127 12.0005 8.28308 12.1254 8.63336 12.3595C8.98364 12.5935 9.25665 12.9262 9.41786 13.3154C9.57908 13.7046 9.62126 14.1329 9.53907 14.5461C9.45688 14.9592 9.25402 15.3388 8.95614 15.6367C8.65825 15.9345 8.27872 16.1374 7.86554 16.2196C7.45236 16.3018 7.02409 16.2596 6.63489 16.0984C6.24568 15.9372 5.91302 15.6642 5.67897 15.3139C5.44492 14.9636 5.32 14.5518 5.32 14.1305C5.31992 13.8466 5.37663 13.5654 5.48679 13.3037C5.59694 13.0419 5.75832 12.8049 5.96143 12.6064C6.16455 12.408 6.4053 12.2521 6.66952 12.1481C6.93374 12.044 7.2161 11.9939 7.5 12.0005H7.45ZM3 21.0005C3.12447 19.9708 3.62123 19.0221 4.39668 18.3332C5.17214 17.6443 6.17275 17.2628 7.21 17.2605H7.73C8.77756 17.248 9.79283 17.6229 10.5809 18.3132C11.369 19.0034 11.8744 19.9604 12 21.0005H3Z" fill="#2F3E39"/>
<path d="M10 5V4C8.4087 4 6.88258 4.63214 5.75736 5.75735C4.63214 6.88257 4 8.4087 4 10H5C5 8.67392 5.52678 7.40216 6.46446 6.46448C7.40214 5.5268 8.67392 5 10 5Z" fill="#2F3E39"/>
</svg>
