<svg width="24" height="24" viewBox="0 0 24 24" fill="none" xmlns="http://www.w3.org/2000/svg">
<g clip-path="url(#clip0_9703_163328)">
<path d="M12 3C16.12 3 19 6.29 19 11C19 15.12 13.76 19.43 12 20.76C10.24 19.43 5 15.12 5 11C5 6.29 7.88 3 12 3ZM12 14C12.7911 14 13.5645 13.7654 14.2223 13.3259C14.8801 12.8863 15.3928 12.2616 15.6955 11.5307C15.9983 10.7998 16.0775 9.99556 15.9231 9.21964C15.7688 8.44371 15.3878 7.73098 14.8284 7.17157C14.269 6.61216 13.5563 6.23121 12.7804 6.07687C12.0044 5.92253 11.2002 6.00172 10.4693 6.30447C9.73836 6.60722 9.11366 7.11991 8.67413 7.77771C8.23461 8.43551 8 9.20887 8 10C8 11.0609 8.42142 12.0783 9.17157 12.8284C9.92172 13.5786 10.9391 14 12 14ZM12 2C7.58 2 4 5.48 4 11C4 16.52 12 22 12 22C12 22 20 16.52 20 11C20 5.48 16.42 2 12 2ZM12 13C11.4067 13 10.8266 12.8241 10.3333 12.4944C9.83993 12.1648 9.45543 11.6962 9.22836 11.148C9.0013 10.5999 8.94189 9.99668 9.05765 9.41473C9.1734 8.83279 9.45914 8.29825 9.87869 7.87869C10.2983 7.45914 10.8328 7.1734 11.4147 7.05765C11.9967 6.94189 12.5999 7.0013 13.148 7.22836C13.6962 7.45543 14.1648 7.83993 14.4944 8.33328C14.8241 8.82663 15 9.40666 15 10C15 10.7956 14.6839 11.5587 14.1213 12.1213C13.5587 12.6839 12.7956 13 12 13Z" fill="#2F3E39"/>
</g>
<defs>
<clipPath id="clip0_9703_163328">
<rect width="16" height="20" fill="white" transform="translate(4 2)"/>
</clipPath>
</defs>
</svg>
