<svg width="24" height="24" viewBox="0 0 24 24" fill="none" xmlns="http://www.w3.org/2000/svg">
<g clip-path="url(#clip0_9703_163296)">
<path d="M12 5C10.6155 5 9.26218 5.41055 8.11104 6.17972C6.95989 6.94889 6.06266 8.04215 5.53285 9.32123C5.00304 10.6003 4.86441 12.0078 5.1345 13.3656C5.4046 14.7235 6.07131 15.9708 7.05028 16.9497C8.02924 17.9287 9.27652 18.5954 10.6344 18.8655C11.9922 19.1356 13.3997 18.997 14.6788 18.4672C15.9579 17.9373 17.0511 17.0401 17.8203 15.889C18.5895 14.7378 19 13.3845 19 12C19 10.1435 18.2625 8.36302 16.9498 7.05026C15.637 5.73751 13.8565 5 12 5V5ZM14.5 11.5V12.5H9.50001V11.5" fill="#2F3E39"/>
</g>
<defs>
<clipPath id="clip0_9703_163296">
<rect width="14" height="14" fill="white" transform="translate(5 5)"/>
</clipPath>
</defs>
</svg>
