<svg width="24" height="24" viewBox="0 0 24 24" fill="none" xmlns="http://www.w3.org/2000/svg">
<path d="M20.0697 18.5L18.8397 9.57999C18.3197 5.76999 15.4097 3 11.9197 3C10.2062 3.05766 8.57343 3.74216 7.33109 4.92368C6.08875 6.10519 5.32322 7.70156 5.17969 9.41L3.92969 18.5H9.04969C9.17715 19.1893 9.54199 19.8123 10.0809 20.2607C10.6198 20.7091 11.2987 20.9546 11.9997 20.9546C12.7007 20.9546 13.3796 20.7091 13.9185 20.2607C14.4574 19.8123 14.8222 19.1893 14.9497 18.5H20.0697ZM6.16969 9.54999C6.27911 8.08014 6.92573 6.70201 7.98623 5.67841C9.04672 4.6548 10.4469 4.05735 11.9197 4C14.9197 4 17.3997 6.4 17.8497 9.72L18.9297 17.5H5.06969L6.16969 9.54999ZM11.9997 20C11.5574 19.9986 11.1281 19.8506 10.7789 19.5792C10.4296 19.3078 10.1803 18.9282 10.0697 18.5H13.9297C13.8191 18.9282 13.5697 19.3078 13.2205 19.5792C12.8713 19.8506 12.442 19.9986 11.9997 20Z" fill="#2F3E39"/>
</svg>
