<svg width="24" height="24" viewBox="0 0 24 24" fill="none" xmlns="http://www.w3.org/2000/svg">
<path d="M19.2167 13.7773L18.5067 13.0674C18.1319 12.6948 17.625 12.4858 17.0967 12.4858C16.5683 12.4858 16.0614 12.6948 15.6867 13.0674L14.6267 14.1273C14.5313 14.2231 14.4018 14.277 14.2667 14.2773C14.2013 14.277 14.1366 14.2635 14.0765 14.2377C14.0164 14.212 13.9621 14.1744 13.9167 14.1273L8.91668 9.17737C8.86981 9.13089 8.83261 9.07558 8.80723 9.01465C8.78184 8.95372 8.76877 8.88836 8.76877 8.82236C8.76877 8.75635 8.78184 8.691 8.80723 8.63007C8.83261 8.56914 8.86981 8.51383 8.91668 8.46735L9.97668 7.40735C10.3492 7.03262 10.5583 6.52572 10.5583 5.99734C10.5583 5.46897 10.3492 4.96207 9.97668 4.58734L9.26667 3.87735C8.70417 3.31555 7.94168 3 7.14667 3C6.35167 3 5.58918 3.31555 5.02668 3.87735L3.75667 5.13736C1.48667 7.40736 4.75668 12.0673 7.85668 15.1873C10.2467 17.5873 13.5367 20.0474 15.9667 20.0474C16.3246 20.0583 16.6811 19.9967 17.0145 19.866C17.3479 19.7354 17.6514 19.5385 17.9067 19.2874L19.1667 18.0174C19.7352 17.4615 20.0598 16.7027 20.0691 15.9077C20.0785 15.1127 19.7719 14.3464 19.2167 13.7773ZM18.5067 17.3073L17.2467 18.5774C17.0856 18.7369 16.893 18.8611 16.6812 18.9421C16.4695 19.023 16.2431 19.0589 16.0167 19.0474C14.2667 19.0474 11.4267 17.2974 8.61667 14.4774C7.06371 12.9966 5.75126 11.2827 4.72668 9.39737C3.89668 7.73737 3.82667 6.53735 4.51667 5.84735L5.78667 4.58734C6.16002 4.21175 6.6671 3.99958 7.19668 3.99734C7.46059 3.99714 7.72193 4.04916 7.96564 4.15042C8.20936 4.25168 8.43062 4.40017 8.61667 4.58734L9.31667 5.28735C9.4104 5.38032 9.48481 5.49093 9.53557 5.61279C9.58634 5.73465 9.61248 5.86533 9.61248 5.99734C9.61248 6.12936 9.58634 6.26007 9.53557 6.38193C9.48481 6.50379 9.4104 6.6144 9.31667 6.70737L8.25667 7.76736C7.97819 8.04989 7.82209 8.43066 7.82209 8.82736C7.82209 9.22407 7.97819 9.60483 8.25667 9.88736L13.2567 14.8373C13.5379 15.1182 13.9192 15.276 14.3167 15.276C14.7142 15.276 15.0954 15.1182 15.3767 14.8373L16.4367 13.7773C16.5296 13.6836 16.6402 13.6092 16.7621 13.5585C16.884 13.5077 17.0147 13.4816 17.1467 13.4816C17.2787 13.4816 17.4094 13.5077 17.5313 13.5585C17.6531 13.6092 17.7637 13.6836 17.8567 13.7773L18.5567 14.4774C18.7394 14.6664 18.883 14.8895 18.9794 15.1341C19.0758 15.3787 19.123 15.6399 19.1184 15.9027C19.1137 16.1656 19.0573 16.4249 18.9524 16.6659C18.8474 16.9069 18.6959 17.1249 18.5067 17.3073Z" fill="#2F3E39"/>
</svg>
