<svg width="24" height="24" viewBox="0 0 24 24" fill="none" xmlns="http://www.w3.org/2000/svg">
<g clip-path="url(#clip0_9703_163319)">
<path d="M12 4.5C12.5933 4.5 13.1734 4.67594 13.6667 5.00558C14.1601 5.33523 14.5446 5.80377 14.7716 6.35194C14.9987 6.90012 15.0581 7.50332 14.9424 8.08527C14.8266 8.66721 14.5409 9.20177 14.1213 9.62132C13.7018 10.0409 13.1672 10.3266 12.5853 10.4424C12.0033 10.5581 11.4001 10.4987 10.852 10.2716C10.3038 10.0446 9.83524 9.66007 9.50559 9.16672C9.17595 8.67337 9 8.09334 9 7.5C9 6.70435 9.31607 5.94129 9.87868 5.37868C10.4413 4.81607 11.2044 4.5 12 4.5ZM12 3.5C11.2089 3.5 10.4355 3.73459 9.77772 4.17412C9.11992 4.61364 8.60723 5.23836 8.30448 5.96927C8.00173 6.70017 7.92252 7.50444 8.07686 8.28036C8.2312 9.05629 8.61217 9.76902 9.17158 10.3284C9.73099 10.8878 10.4437 11.2688 11.2196 11.4231C11.9956 11.5775 12.7998 11.4983 13.5307 11.1955C14.2616 10.8928 14.8864 10.3801 15.3259 9.72227C15.7654 9.06448 16 8.29113 16 7.5C16 6.43913 15.5786 5.42172 14.8284 4.67157C14.0783 3.92142 13.0609 3.5 12 3.5Z" fill="#2F3E39"/>
<path d="M15 13.5C16.0609 13.5 17.0783 13.9214 17.8284 14.6716C18.5786 15.4217 19 16.4391 19 17.5V19.5H5V17.5C5 16.4391 5.42143 15.4217 6.17157 14.6716C6.92172 13.9214 7.93913 13.5 9 13.5H15ZM15 12.5H9C7.67392 12.5 6.40215 13.0268 5.46447 13.9645C4.52678 14.9021 4 16.1739 4 17.5V20.5H20V17.5C20 16.1739 19.4732 14.9021 18.5355 13.9645C17.5979 13.0268 16.3261 12.5 15 12.5Z" fill="#2F3E39"/>
</g>
<defs>
<clipPath id="clip0_9703_163319">
<rect width="16" height="17" fill="white" transform="translate(4 3.5)"/>
</clipPath>
</defs>
</svg>
