<svg width="24" height="24" viewBox="0 0 24 24" fill="none" xmlns="http://www.w3.org/2000/svg">
<path d="M19 8H18V4C18 3.46957 17.7893 2.96086 17.4142 2.58578C17.0391 2.21071 16.5304 2 16 2H5C4.46957 2 3.96086 2.21071 3.58578 2.58578C3.21071 2.96086 3 3.46957 3 4V20C3 20.5304 3.21071 21.0391 3.58578 21.4142C3.96086 21.7893 4.46957 22 5 22H19C19.5304 22 20.0391 21.7893 20.4142 21.4142C20.7893 21.0391 21 20.5304 21 20V10C21 9.46957 20.7893 8.96086 20.4142 8.58578C20.0391 8.21071 19.5304 8 19 8ZM5 21C4.73478 21 4.48043 20.8946 4.29289 20.7071C4.10536 20.5196 4 20.2652 4 20V4C4 3.73478 4.10536 3.48044 4.29289 3.29291C4.48043 3.10537 4.73478 3 5 3H16C16.2652 3 16.5196 3.10537 16.7071 3.29291C16.8946 3.48044 17 3.73478 17 4V21H5ZM20 20C20 20.2652 19.8946 20.5196 19.7071 20.7071C19.5196 20.8946 19.2652 21 19 21H18V9H19C19.2652 9 19.5196 9.10537 19.7071 9.29291C19.8946 9.48044 20 9.73478 20 10V20Z" fill="#2F3E39"/>
<path d="M8.8 5H7.2C7.08954 5 7 5.08954 7 5.2V6.8C7 6.91046 7.08954 7 7.2 7H8.8C8.91046 7 9 6.91046 9 6.8V5.2C9 5.08954 8.91046 5 8.8 5Z" fill="#2F3E39"/>
<path d="M13.8 5H12.2C12.0895 5 12 5.08954 12 5.2V6.8C12 6.91046 12.0895 7 12.2 7H13.8C13.9105 7 14 6.91046 14 6.8V5.2C14 5.08954 13.9105 5 13.8 5Z" fill="#2F3E39"/>
<path d="M8.8 9H7.2C7.08954 9 7 9.08954 7 9.2V10.8C7 10.9105 7.08954 11 7.2 11H8.8C8.91046 11 9 10.9105 9 10.8V9.2C9 9.08954 8.91046 9 8.8 9Z" fill="#2F3E39"/>
<path d="M13.8 9H12.2C12.0895 9 12 9.08954 12 9.2V10.8C12 10.9105 12.0895 11 12.2 11H13.8C13.9105 11 14 10.9105 14 10.8V9.2C14 9.08954 13.9105 9 13.8 9Z" fill="#2F3E39"/>
<path d="M8.8 13H7.2C7.08954 13 7 13.0895 7 13.2V14.8C7 14.9105 7.08954 15 7.2 15H8.8C8.91046 15 9 14.9105 9 14.8V13.2C9 13.0895 8.91046 13 8.8 13Z" fill="#2F3E39"/>
<path d="M13.8 13H12.2C12.0895 13 12 13.0895 12 13.2V14.8C12 14.9105 12.0895 15 12.2 15H13.8C13.9105 15 14 14.9105 14 14.8V13.2C14 13.0895 13.9105 13 13.8 13Z" fill="#2F3E39"/>
<path d="M8.8 17H7.2C7.08954 17 7 17.0895 7 17.2V18.8C7 18.9105 7.08954 19 7.2 19H8.8C8.91046 19 9 18.9105 9 18.8V17.2C9 17.0895 8.91046 17 8.8 17Z" fill="#2F3E39"/>
<path d="M13.8 17H12.2C12.0895 17 12 17.0895 12 17.2V18.8C12 18.9105 12.0895 19 12.2 19H13.8C13.9105 19 14 18.9105 14 18.8V17.2C14 17.0895 13.9105 17 13.8 17Z" fill="#2F3E39"/>
</svg>
