<svg width="24" height="24" viewBox="0 0 24 24" fill="none" xmlns="http://www.w3.org/2000/svg">
<g clip-path="url(#clip0_9703_163360)">
<path d="M19 8.00002H18V4C18 3.46957 17.7893 2.96086 17.4142 2.58578C17.0391 2.21071 16.5304 2 16 2H5C4.46957 2 3.96086 2.21071 3.58578 2.58578C3.21071 2.96086 3 3.46957 3 4V20C3 20.5304 3.21071 21.0392 3.58578 21.4142C3.96086 21.7893 4.46957 22 5 22H19C19.5304 22 20.0391 21.7893 20.4142 21.4142C20.7893 21.0392 21 20.5304 21 20V10C21 9.46958 20.7893 8.96087 20.4142 8.5858C20.0391 8.21073 19.5304 8.00002 19 8.00002ZM9 18.8C9 18.853 8.97891 18.9039 8.94141 18.9414C8.9039 18.9789 8.85303 19 8.79999 19H7.20001C7.14697 19 7.0961 18.9789 7.05859 18.9414C7.02109 18.9039 7 18.853 7 18.8V17.2C7 17.147 7.02109 17.0961 7.05859 17.0586C7.0961 17.0211 7.14697 17 7.20001 17H8.79999C8.85303 17 8.9039 17.0211 8.94141 17.0586C8.97891 17.0961 9 17.147 9 17.2V18.8ZM9 14.8C9 14.853 8.97891 14.9039 8.94141 14.9414C8.9039 14.9789 8.85303 15 8.79999 15H7.20001C7.14697 15 7.0961 14.9789 7.05859 14.9414C7.02109 14.9039 7 14.853 7 14.8V13.2C7 13.147 7.02109 13.0961 7.05859 13.0586C7.0961 13.0211 7.14697 13 7.20001 13H8.79999C8.85303 13 8.9039 13.0211 8.94141 13.0586C8.97891 13.0961 9 13.147 9 13.2V14.8ZM9 10.8C9 10.853 8.97891 10.9039 8.94141 10.9414C8.9039 10.9789 8.85303 11 8.79999 11H7.20001C7.14697 11 7.0961 10.9789 7.05859 10.9414C7.02109 10.9039 7 10.853 7 10.8V9.2C7 9.14695 7.02109 9.09609 7.05859 9.05858C7.0961 9.02107 7.14697 9.00002 7.20001 9.00002H8.79999C8.85303 9.00002 8.9039 9.02107 8.94141 9.05858C8.97891 9.09609 9 9.14695 9 9.2V10.8ZM9 6.8C9 6.85305 8.97891 6.90391 8.94141 6.94142C8.9039 6.97893 8.85303 7.00002 8.79999 7.00002H7.20001C7.14697 7.00002 7.0961 6.97893 7.05859 6.94142C7.02109 6.90391 7 6.85305 7 6.8V5.2C7 5.14695 7.02109 5.09609 7.05859 5.05858C7.0961 5.02107 7.14697 5 7.20001 5H8.79999C8.85303 5 8.9039 5.02107 8.94141 5.05858C8.97891 5.09609 9 5.14695 9 5.2V6.8ZM14 18.8C14 18.853 13.9789 18.9039 13.9414 18.9414C13.9039 18.9789 13.853 19 13.8 19H12.2C12.147 19 12.0961 18.9789 12.0586 18.9414C12.0211 18.9039 12 18.853 12 18.8V17.2C12 17.147 12.0211 17.0961 12.0586 17.0586C12.0961 17.0211 12.147 17 12.2 17H13.8C13.853 17 13.9039 17.0211 13.9414 17.0586C13.9789 17.0961 14 17.147 14 17.2V18.8ZM14 14.8C14 14.853 13.9789 14.9039 13.9414 14.9414C13.9039 14.9789 13.853 15 13.8 15H12.2C12.147 15 12.0961 14.9789 12.0586 14.9414C12.0211 14.9039 12 14.853 12 14.8V13.2C12 13.147 12.0211 13.0961 12.0586 13.0586C12.0961 13.0211 12.147 13 12.2 13H13.8C13.853 13 13.9039 13.0211 13.9414 13.0586C13.9789 13.0961 14 13.147 14 13.2V14.8ZM14 10.8C14 10.853 13.9789 10.9039 13.9414 10.9414C13.9039 10.9789 13.853 11 13.8 11H12.2C12.147 11 12.0961 10.9789 12.0586 10.9414C12.0211 10.9039 12 10.853 12 10.8V9.2C12 9.14695 12.0211 9.09609 12.0586 9.05858C12.0961 9.02107 12.147 9.00002 12.2 9.00002H13.8C13.853 9.00002 13.9039 9.02107 13.9414 9.05858C13.9789 9.09609 14 9.14695 14 9.2V10.8ZM14 6.8C14 6.85305 13.9789 6.90391 13.9414 6.94142C13.9039 6.97893 13.853 7.00002 13.8 7.00002H12.2C12.147 7.00002 12.0961 6.97893 12.0586 6.94142C12.0211 6.90391 12 6.85305 12 6.8V5.2C12 5.14695 12.0211 5.09609 12.0586 5.05858C12.0961 5.02107 12.147 5 12.2 5H13.8C13.853 5 13.9039 5.02107 13.9414 5.05858C13.9789 5.09609 14 5.14695 14 5.2V6.8Z" fill="#2F3E39"/>
</g>
<defs>
<clipPath id="clip0_9703_163360">
<rect width="18" height="20" fill="white" transform="translate(3 2)"/>
</clipPath>
</defs>
</svg>
