<svg width="24" height="24" viewBox="0 0 24 24" fill="none" xmlns="http://www.w3.org/2000/svg">
<g clip-path="url(#clip0_9703_163348)">
<path d="M12.5001 15.4998H11.5001V12.3698H12.0001C12.4336 12.3698 12.8575 12.2411 13.2178 12C13.5782 11.759 13.8589 11.4163 14.0243 11.0156C14.1898 10.6148 14.2325 10.174 14.1472 9.74888C14.0619 9.32379 13.8523 8.9336 13.5451 8.62772C13.2378 8.32185 12.8466 8.11406 12.4212 8.03069C11.9957 7.94732 11.555 7.99213 11.155 8.15942C10.7551 8.32671 10.4137 8.60895 10.1743 8.97041C9.93487 9.33186 9.8081 9.75627 9.81008 10.1898H8.81008C8.80806 9.57982 8.98097 8.98203 9.30834 8.46731C9.6357 7.95259 10.1038 7.54252 10.6571 7.28571C11.2104 7.02891 11.8258 6.93614 12.4302 7.01839C13.0347 7.10065 13.6028 7.35448 14.0674 7.74981C14.532 8.14514 14.8735 8.66538 15.0514 9.24886C15.2293 9.83235 15.2362 10.4546 15.0712 11.0419C14.9063 11.6292 14.5764 12.1568 14.1207 12.5623C13.665 12.9679 13.1025 13.2342 12.5001 13.3298V15.4998Z" fill="#2F3E39"/>
<path d="M12.5 17.04V16.04H11.5V17.04H12.5Z" fill="#2F3E39"/>
<path d="M12 3C13.78 3 15.5201 3.52784 17.0001 4.51677C18.4802 5.5057 19.6337 6.91131 20.3149 8.55585C20.9961 10.2004 21.1743 12.01 20.8271 13.7558C20.4798 15.5016 19.6226 17.1053 18.364 18.364C17.1053 19.6226 15.5016 20.4798 13.7558 20.8271C12.01 21.1743 10.2004 20.9961 8.55586 20.3149C6.91132 19.6337 5.50573 18.4802 4.5168 17.0001C3.52786 15.5201 3.00001 13.78 3.00001 12C3.00001 9.61305 3.94823 7.32386 5.63606 5.63603C7.32389 3.9482 9.61306 3 12 3ZM12 2C10.0222 2 8.08881 2.58649 6.44432 3.6853C4.79983 4.78412 3.51809 6.34591 2.76121 8.17317C2.00434 10.0004 1.8063 12.0111 2.19215 13.9509C2.578 15.8907 3.53041 17.6726 4.92894 19.0711C6.32746 20.4696 8.10931 21.422 10.0491 21.8079C11.9889 22.1937 13.9996 21.9957 15.8269 21.2388C17.6541 20.4819 19.2159 19.2002 20.3147 17.5557C21.4135 15.9112 22 13.9778 22 12C22 9.34784 20.9465 6.80429 19.0711 4.92892C17.1957 3.05356 14.6522 2 12 2Z" fill="#2F3E39"/>
</g>
<defs>
<clipPath id="clip0_9703_163348">
<rect width="20" height="20" fill="white" transform="translate(2 2)"/>
</clipPath>
</defs>
</svg>
