<svg width="24" height="24" viewBox="0 0 24 24" fill="none" xmlns="http://www.w3.org/2000/svg">
<path d="M12 2C10.0222 2 8.08878 2.58649 6.44429 3.6853C4.7998 4.78412 3.51808 6.3459 2.7612 8.17316C2.00432 10.0004 1.8063 12.0111 2.19215 13.9509C2.57801 15.8907 3.5304 17.6726 4.92893 19.0711C6.32745 20.4696 8.10929 21.422 10.0491 21.8079C11.9889 22.1937 13.9996 21.9957 15.8268 21.2388C17.6541 20.4819 19.2159 19.2002 20.3147 17.5557C21.4135 15.9112 22 13.9778 22 12C22 9.34784 20.9464 6.80429 19.0711 4.92892C17.1957 3.05356 14.6522 2 12 2ZM16.46 13.06L15.94 12.54C15.8362 13.302 15.5149 14.018 15.0146 14.6021C14.5143 15.1861 13.8562 15.6136 13.1192 15.8333C12.3821 16.053 11.5974 16.0555 10.859 15.8406C10.1205 15.6257 9.4597 15.2025 8.95563 14.6217C8.45155 14.0408 8.1256 13.327 8.01683 12.5657C7.90806 11.8043 8.02107 11.0278 8.34233 10.329C8.66359 9.63029 9.17947 9.03896 9.82819 8.62589C10.4769 8.21281 11.2309 7.99551 12 8V9C11.4269 9.0062 10.8675 9.17647 10.3881 9.49063C9.90873 9.80479 9.52935 10.2497 9.29491 10.7727C9.06046 11.2957 8.98076 11.875 9.06522 12.4419C9.14967 13.0088 9.39477 13.5396 9.77149 13.9716C10.1482 14.4036 10.6408 14.7186 11.1909 14.8794C11.7411 15.0401 12.3258 15.04 12.8758 14.8788C13.4259 14.7177 13.9183 14.4024 14.2947 13.9702C14.6712 13.538 14.9159 13.007 15 12.44L14.38 13.06L13.67 12.35L15.44 10.59L17.21 12.35L16.46 13.06Z" fill="#2F3E39"/>
</svg>
