<svg width="24" height="24" viewBox="0 0 24 24" fill="none" xmlns="http://www.w3.org/2000/svg">
<path d="M12 5C10.6155 5 9.26218 5.41054 8.11104 6.17971C6.95989 6.94888 6.06266 8.04213 5.53285 9.32121C5.00304 10.6003 4.86441 12.0078 5.1345 13.3656C5.4046 14.7235 6.07131 15.9708 7.05028 16.9497C8.02924 17.9287 9.27652 18.5954 10.6344 18.8655C11.9922 19.1356 13.3997 18.997 14.6788 18.4672C15.9579 17.9373 17.0511 17.0401 17.8203 15.889C18.5895 14.7378 19 13.3845 19 12C19 10.1435 18.2625 8.36301 16.9498 7.05025C15.637 5.7375 13.8565 5 12 5ZM16.46 13.06L15.94 12.54C15.8362 13.302 15.5149 14.018 15.0146 14.6021C14.5143 15.1861 13.8562 15.6136 13.1192 15.8333C12.3821 16.053 11.5974 16.0555 10.859 15.8406C10.1206 15.6257 9.45971 15.2025 8.95564 14.6217C8.45157 14.0408 8.12563 13.327 8.01686 12.5657C7.90809 11.8043 8.0211 11.0278 8.34236 10.329C8.66362 9.63028 9.17948 9.03896 9.8282 8.62589C10.4769 8.21281 11.231 7.99551 12 8V9C11.4269 9.0062 10.8675 9.17646 10.3881 9.49062C9.90874 9.80478 9.52938 10.2497 9.29494 10.7727C9.06049 11.2957 8.98077 11.875 9.06523 12.4419C9.14969 13.0088 9.39478 13.5396 9.7715 13.9716C10.1482 14.4036 10.6408 14.7186 11.191 14.8794C11.7411 15.0402 12.3258 15.04 12.8758 14.8788C13.4259 14.7177 13.9183 14.4024 14.2947 13.9702C14.6712 13.538 14.9159 13.007 15 12.44L14.38 13.06L13.67 12.35L15.44 10.59L17.21 12.35L16.46 13.06Z" fill="#2F3E39"/>
</svg>
