<svg width="24" height="24" viewBox="0 0 24 24" fill="none" xmlns="http://www.w3.org/2000/svg">
<g clip-path="url(#clip0_9703_163325)">
<rect x="6" y="6" width="12" height="12" fill="white"/>
<path d="M11.55 15.2701C13.6045 15.2701 15.27 13.6046 15.27 11.5501C15.27 9.49558 13.6045 7.83008 11.55 7.83008C9.49546 7.83008 7.82996 9.49558 7.82996 11.5501C7.82996 13.6046 9.49546 15.2701 11.55 15.2701Z" fill="#2F3E39"/>
<path d="M12 2C10.0222 2 8.08881 2.5865 6.44432 3.68531C4.79983 4.78412 3.51809 6.34591 2.76121 8.17317C2.00434 10.0004 1.8063 12.0111 2.19215 13.9509C2.578 15.8907 3.53041 17.6725 4.92894 19.0711C6.32746 20.4696 8.10931 21.422 10.0491 21.8079C11.9889 22.1937 13.9996 21.9957 15.8269 21.2388C17.6541 20.4819 19.2159 19.2002 20.3147 17.5557C21.4135 15.9112 22 13.9778 22 12C22 9.34784 20.9465 6.8043 19.0711 4.92893C17.1957 3.05357 14.6522 2 12 2ZM16.47 17.18L14.47 15.18C13.6259 15.8765 12.5644 16.2551 11.47 16.25C10.5345 16.25 9.62002 15.9726 8.84218 15.4529C8.06433 14.9331 7.45808 14.1944 7.10008 13.3301C6.74208 12.4658 6.64841 11.5148 6.83091 10.5972C7.01342 9.6797 7.46391 8.83689 8.12541 8.17539C8.78691 7.51389 9.62972 7.0634 10.5473 6.88089C11.4648 6.69838 12.4158 6.79205 13.2801 7.15005C14.1444 7.50806 14.8831 8.11431 15.4029 8.89216C15.9226 9.67 16.2 10.5845 16.2 11.52C16.2051 12.6143 15.8265 13.6759 15.13 14.52L17.13 16.52L16.47 17.18Z" fill="#2F3E39"/>
</g>
<defs>
<clipPath id="clip0_9703_163325">
<rect width="20" height="20" fill="white" transform="translate(2 2)"/>
</clipPath>
</defs>
</svg>
