<svg width="24" height="24" viewBox="0 0 24 24" fill="none" xmlns="http://www.w3.org/2000/svg">
<path d="M17.8905 17.1905L17.7605 17.3205C19.2806 15.6852 20.0979 13.5185 20.0368 11.2866C19.9756 9.05475 19.0408 6.9361 17.4335 5.38643C15.8262 3.83677 13.6748 2.97997 11.4422 3.00036C9.20958 3.02074 7.0742 3.91669 5.49544 5.49544C3.91669 7.0742 3.02074 9.20958 3.00036 11.4422C2.97997 13.6748 3.83677 15.8262 5.38643 17.4335C6.9361 19.0408 9.05475 19.9756 11.2866 20.0368C13.5185 20.0979 15.6852 19.2806 17.3205 17.7605L17.1905 17.8905L20.6905 21.3905L21.3905 20.6905L17.8905 17.1905ZM11.5405 19.0405C10.0572 19.0405 8.60711 18.6007 7.37374 17.7765C6.14037 16.9524 5.17907 15.7811 4.61141 14.4106C4.04375 13.0402 3.89523 11.5322 4.18462 10.0774C4.47401 8.62249 5.18831 7.2861 6.2372 6.2372C7.2861 5.18831 8.62249 4.47401 10.0774 4.18462C11.5322 3.89523 13.0402 4.04375 14.4106 4.61141C15.7811 5.17907 16.9524 6.14037 17.7765 7.37374C18.6007 8.60711 19.0405 10.0572 19.0405 11.5405C19.0405 13.5296 18.2504 15.4373 16.8438 16.8438C15.4373 18.2504 13.5296 19.0405 11.5405 19.0405Z" fill="#2F3E39"/>
</svg>
