<svg width="24" height="24" viewBox="0 0 24 24" fill="none" xmlns="http://www.w3.org/2000/svg">
<path d="M12.0002 10.3729C12.2965 10.3729 12.5862 10.4608 12.8326 10.6254C13.079 10.7901 13.271 11.0241 13.3844 11.2979C13.4978 11.5716 13.5275 11.8729 13.4697 12.1636C13.4119 12.4542 13.2692 12.7212 13.0596 12.9307C12.8501 13.1403 12.5831 13.283 12.2925 13.3408C12.0018 13.3986 11.7006 13.3689 11.4268 13.2555C11.153 13.1421 10.919 12.9501 10.7543 12.7037C10.5897 12.4573 10.5018 12.1676 10.5018 11.8713C10.5018 11.4739 10.6597 11.0928 10.9407 10.8118C11.2217 10.5308 11.6028 10.3729 12.0002 10.3729ZM12.0002 9.37402C11.5063 9.37402 11.0234 9.52048 10.6128 9.79488C10.2021 10.0693 9.88204 10.4593 9.69303 10.9156C9.50402 11.3719 9.45456 11.874 9.55091 12.3584C9.64727 12.8429 9.88511 13.2878 10.2344 13.6371C10.5836 13.9863 11.0286 14.2241 11.513 14.3205C11.9974 14.4169 12.4995 14.3674 12.9558 14.1784C13.4121 13.9894 13.8021 13.6693 14.0765 13.2586C14.3509 12.848 14.4974 12.3652 14.4974 11.8713C14.4974 11.2089 14.2343 10.5738 13.766 10.1054C13.2976 9.63713 12.6625 9.37402 12.0002 9.37402Z" fill="#2F3E39"/>
<path d="M12.6992 3.99889C12.9641 3.99889 13.2182 4.10415 13.4055 4.29147C13.5929 4.4788 13.6981 4.73286 13.6981 4.99778C13.6872 5.15618 13.7088 5.31514 13.7613 5.46494C13.8139 5.61475 13.8965 5.75226 14.004 5.8691C14.1115 5.98594 14.2417 6.07965 14.3866 6.14452C14.5315 6.20939 14.6881 6.24405 14.8468 6.24639C15.0159 6.24415 15.1828 6.20756 15.3373 6.13888C15.4919 6.0702 15.6309 5.97085 15.7458 5.84684C15.933 5.6608 16.1862 5.55637 16.4501 5.55637C16.714 5.55637 16.9671 5.6608 17.1543 5.84684L18.1532 6.84574C18.3392 7.03289 18.4436 7.28605 18.4436 7.54994C18.4436 7.81383 18.3392 8.06702 18.1532 8.25418C17.9682 8.41501 17.8385 8.62992 17.7824 8.86851C17.7263 9.10711 17.7466 9.35731 17.8405 9.58372C17.9343 9.81014 18.097 10.0013 18.3055 10.1302C18.514 10.2591 18.7577 10.3191 19.0022 10.3019C19.2671 10.3019 19.5212 10.4071 19.7085 10.5945C19.8959 10.7818 20.0011 11.0359 20.0011 11.3008V12.6992C20.0011 12.9641 19.8959 13.2182 19.7085 13.4056C19.5212 13.5929 19.2671 13.6981 19.0022 13.6981C18.7577 13.6809 18.514 13.7409 18.3055 13.8698C18.097 13.9987 17.9343 14.1899 17.8405 14.4163C17.7466 14.6427 17.7263 14.8929 17.7824 15.1315C17.8385 15.3701 17.9682 15.585 18.1532 15.7459C18.3392 15.933 18.4436 16.1862 18.4436 16.4501C18.4436 16.714 18.3392 16.9671 18.1532 17.1543L17.1543 18.1532C16.9671 18.3392 16.714 18.4436 16.4501 18.4436C16.1862 18.4436 15.933 18.3392 15.7458 18.1532C15.6309 18.0292 15.4919 17.9298 15.3373 17.8611C15.1828 17.7924 15.0159 17.7559 14.8468 17.7536C14.6899 17.7561 14.535 17.7902 14.3915 17.8538C14.248 17.9174 14.1188 18.0093 14.0116 18.124C13.9044 18.2387 13.8213 18.3738 13.7675 18.5212C13.7136 18.6687 13.69 18.8255 13.6981 18.9823C13.6981 19.2472 13.5929 19.5012 13.4055 19.6886C13.2182 19.8759 12.9641 19.9811 12.6992 19.9811H11.3008C11.0359 19.9811 10.7818 19.8759 10.5945 19.6886C10.4071 19.5012 10.3019 19.2472 10.3019 18.9823C10.3128 18.8239 10.2912 18.6649 10.2387 18.5151C10.1861 18.3653 10.1035 18.2278 9.99602 18.1109C9.88852 17.9941 9.75834 17.9004 9.61343 17.8355C9.46852 17.7706 9.31191 17.736 9.15316 17.7336C8.98406 17.7359 8.81719 17.7725 8.66266 17.8412C8.50812 17.9098 8.36914 18.0092 8.25416 18.1332C8.06701 18.3192 7.81383 18.4237 7.54994 18.4237C7.28605 18.4237 7.03288 18.3192 6.84572 18.1332L5.84683 17.1343C5.66079 16.9471 5.55637 16.694 5.55637 16.4301C5.55637 16.1662 5.66079 15.913 5.84683 15.7259C6.03179 15.565 6.1615 15.3501 6.21762 15.1115C6.27374 14.8729 6.25343 14.6227 6.15955 14.3963C6.06567 14.1699 5.90297 13.9787 5.69449 13.8499C5.486 13.721 5.24228 13.6609 4.99778 13.6781C4.73286 13.6781 4.47879 13.5729 4.29146 13.3856C4.10413 13.1982 3.99889 12.9442 3.99889 12.6793V11.2808C3.99889 11.0159 4.10413 10.7618 4.29146 10.5745C4.47879 10.3871 4.73286 10.2819 4.99778 10.2819C5.24228 10.2992 5.486 10.2391 5.69449 10.1102C5.90297 9.98133 6.06567 9.79014 6.15955 9.56373C6.25343 9.33731 6.27374 9.08711 6.21762 8.84852C6.1615 8.60992 6.03179 8.39501 5.84683 8.23418C5.66079 8.04702 5.55637 7.79387 5.55637 7.52997C5.55637 7.26608 5.66079 7.01289 5.84683 6.82574L6.84572 5.82685C7.03288 5.6408 7.28605 5.5364 7.54994 5.5364C7.81383 5.5364 8.06701 5.6408 8.25416 5.82685C8.36914 5.95086 8.50812 6.05023 8.66266 6.11891C8.81719 6.18759 8.98406 6.22418 9.15316 6.22643C9.31012 6.22395 9.46498 6.18986 9.60849 6.12623C9.752 6.06259 9.88121 5.97069 9.98842 5.85602C10.0956 5.74135 10.1787 5.60627 10.2325 5.45882C10.2864 5.31136 10.31 5.15456 10.3019 4.99778C10.3019 4.73286 10.4071 4.4788 10.5945 4.29147C10.7818 4.10415 11.0359 3.99889 11.3008 3.99889H12.6992ZM12.6992 3H11.3008C10.7709 3 10.2628 3.21048 9.88813 3.58514C9.51348 3.95979 9.303 4.46794 9.303 4.99778C9.303 5.1576 9.24306 5.2475 9.15316 5.2475C9.07891 5.2344 9.01171 5.1955 8.96338 5.13764C8.77784 4.95189 8.5575 4.80452 8.31497 4.70398C8.07245 4.60344 7.81248 4.55171 7.54994 4.55171C7.2874 4.55171 7.02743 4.60344 6.78491 4.70398C6.54238 4.80452 6.32206 4.95189 6.13652 5.13764L5.13763 6.13653C4.95188 6.32207 4.80452 6.54239 4.70398 6.78492C4.60344 7.02745 4.5517 7.2874 4.5517 7.54994C4.5517 7.81248 4.60344 8.07246 4.70398 8.31499C4.80452 8.55752 4.95188 8.77784 5.13763 8.96338C5.32741 9.15317 5.25749 9.303 4.99778 9.303C4.46794 9.303 3.95979 9.51348 3.58514 9.88813C3.21048 10.2628 3 10.7709 3 11.3008V12.6992C3 13.2291 3.21048 13.7372 3.58514 14.1119C3.95979 14.4865 4.46794 14.697 4.99778 14.697C5.25749 14.697 5.32741 14.8468 5.13763 15.0366C4.95188 15.2222 4.80452 15.4425 4.70398 15.685C4.60344 15.9276 4.5517 16.1875 4.5517 16.4501C4.5517 16.7126 4.60344 16.9726 4.70398 17.2151C4.80452 17.4576 4.95188 17.678 5.13763 17.8635L6.13652 18.8624C6.32206 19.0481 6.54238 19.1955 6.78491 19.296C7.02743 19.3966 7.2874 19.4483 7.54994 19.4483C7.81248 19.4483 8.07245 19.3966 8.31497 19.296C8.5575 19.1955 8.77784 19.0481 8.96338 18.8624C9.01171 18.8045 9.07891 18.7656 9.15316 18.7525C9.24306 18.7525 9.303 18.8424 9.303 19.0022C9.303 19.5321 9.51348 20.0402 9.88813 20.4149C10.2628 20.7895 10.7709 21 11.3008 21H12.6992C13.2291 21 13.7372 20.7895 14.1119 20.4149C14.4865 20.0402 14.697 19.5321 14.697 19.0022C14.697 18.8424 14.7569 18.7525 14.8468 18.7525C14.9211 18.7656 14.9883 18.8045 15.0366 18.8624C15.2222 19.0481 15.4425 19.1955 15.685 19.296C15.9276 19.3966 16.1875 19.4483 16.4501 19.4483C16.7126 19.4483 16.9726 19.3966 17.2151 19.296C17.4576 19.1955 17.6779 19.0481 17.8635 18.8624L18.8624 17.8635C19.0481 17.678 19.1955 17.4576 19.296 17.2151C19.3966 16.9726 19.4483 16.7126 19.4483 16.4501C19.4483 16.1875 19.3966 15.9276 19.296 15.685C19.1955 15.4425 19.0481 15.2222 18.8624 15.0366C18.6726 14.8468 18.7425 14.697 19.0022 14.697C19.5321 14.697 20.0402 14.4865 20.4149 14.1119C20.7895 13.7372 21 13.2291 21 12.6992V11.3008C21 10.7709 20.7895 10.2628 20.4149 9.88813C20.0402 9.51348 19.5321 9.303 19.0022 9.303C18.7425 9.303 18.6726 9.15317 18.8624 8.96338C19.0481 8.77784 19.1955 8.55752 19.296 8.31499C19.3966 8.07246 19.4483 7.81248 19.4483 7.54994C19.4483 7.2874 19.3966 7.02745 19.296 6.78492C19.1955 6.54239 19.0481 6.32207 18.8624 6.13653L17.8635 5.13764C17.6779 4.95189 17.4576 4.80452 17.2151 4.70398C16.9726 4.60344 16.7126 4.55171 16.4501 4.55171C16.1875 4.55171 15.9276 4.60344 15.685 4.70398C15.4425 4.80452 15.2222 4.95189 15.0366 5.13764C14.9883 5.1955 14.9211 5.2344 14.8468 5.2475C14.7569 5.2475 14.697 5.1576 14.697 4.99778C14.697 4.46794 14.4865 3.95979 14.1119 3.58514C13.7372 3.21048 13.2291 3 12.6992 3Z" fill="#2F3E39"/>
</svg>
