<svg width="24" height="24" viewBox="0 0 24 24" fill="none" xmlns="http://www.w3.org/2000/svg">
<path d="M11.5004 4.30844V15.1084H12.5004V4.30844L15.6504 7.45844L16.3504 6.74844L12.0004 2.39844L7.65039 6.74844L8.35039 7.45844L11.5004 4.30844Z" fill="#2F3E39"/>
<path d="M17 9.60938H15V10.6094H17C17.3978 10.6094 17.7794 10.7674 18.0607 11.0487C18.342 11.33 18.5 11.7116 18.5 12.1094V19.1094C18.5 19.5072 18.342 19.8887 18.0607 20.17C17.7794 20.4513 17.3978 20.6094 17 20.6094H7C6.60218 20.6094 6.22064 20.4513 5.93933 20.17C5.65803 19.8887 5.5 19.5072 5.5 19.1094V12.1094C5.5 11.7116 5.65803 11.33 5.93933 11.0487C6.22064 10.7674 6.60218 10.6094 7 10.6094H9V9.60938H7C6.33696 9.60938 5.70108 9.87277 5.23224 10.3416C4.7634 10.8105 4.5 11.4463 4.5 12.1094V19.1094C4.5 19.7724 4.7634 20.4083 5.23224 20.8771C5.70108 21.346 6.33696 21.6094 7 21.6094H17C17.663 21.6094 18.2989 21.346 18.7678 20.8771C19.2366 20.4083 19.5 19.7724 19.5 19.1094V12.1094C19.5 11.4463 19.2366 10.8105 18.7678 10.3416C18.2989 9.87277 17.663 9.60938 17 9.60938Z" fill="#2F3E39"/>
</svg>
