<svg width="24" height="24" viewBox="0 0 24 24" fill="none" xmlns="http://www.w3.org/2000/svg">
<path d="M10.6208 3.07047C10.9008 2.51047 11.4408 2.23047 11.9708 2.23047H12.0108C12.5508 2.23047 13.0808 2.51047 13.3608 3.07047L15.2508 6.91047C15.5308 7.47047 16.0608 7.86047 16.6808 7.95047L20.9208 8.57047C22.1508 8.75047 22.6408 10.2605 21.7508 11.1305L18.6808 14.1205C18.2308 14.5505 18.0208 15.1805 18.1308 15.8005L18.8508 20.0205C19.0108 20.9905 18.2408 21.7805 17.3708 21.7805C17.1408 21.7805 16.9008 21.7205 16.6708 21.6005L12.8808 19.6105C12.6008 19.4605 12.3008 19.3905 11.9908 19.3905C11.6808 19.3905 11.3808 19.4605 11.1008 19.6105L7.31079 21.6005C7.08079 21.7305 6.84079 21.7805 6.61079 21.7805C5.73079 21.7805 4.96079 20.9905 5.13079 20.0205L5.85079 15.8005C5.95079 15.1905 5.75079 14.5605 5.30079 14.1205L2.23079 11.1305C1.34079 10.2605 1.83079 8.75047 3.06079 8.57047L7.30079 7.95047C7.92079 7.86047 8.45079 7.47047 8.73079 6.91047L10.6208 3.07047Z" fill="#2F3E39"/>
</svg>
