<svg width="24" height="24" viewBox="0 0 24 24" fill="none" xmlns="http://www.w3.org/2000/svg">
<g clip-path="url(#clip0_9703_163341)">
<path d="M11.9908 3.23047C12.0808 3.23047 12.3108 3.26047 12.4408 3.51047L14.3308 7.35047C14.7508 8.21047 15.5708 8.80047 16.5108 8.94047L20.7508 9.56047C21.0308 9.60047 21.1208 9.81047 21.1508 9.90047C21.1808 9.99047 21.2208 10.2205 21.0208 10.4105L17.9508 13.4005C17.2708 14.0705 16.9508 15.0305 17.1208 15.9705L17.8408 20.1905C17.8708 20.3405 17.8408 20.4805 17.7408 20.5905C17.6408 20.7105 17.5008 20.7805 17.3508 20.7805C17.2708 20.7805 17.1908 20.7605 17.1208 20.7205L13.3308 18.7305C12.9208 18.5105 12.4508 18.4005 11.9808 18.4005C11.5108 18.4005 11.0408 18.5205 10.6308 18.7305L6.84079 20.7205C6.76079 20.7605 6.68079 20.7805 6.61079 20.7805C6.47079 20.7805 6.32079 20.7105 6.22079 20.5905C6.12079 20.4805 6.09079 20.3405 6.12079 20.1905L6.84079 15.9705C7.00079 15.0305 6.69079 14.0705 6.01079 13.4005L2.94079 10.4105C2.74079 10.2105 2.78079 9.99047 2.81079 9.90047C2.84079 9.81047 2.94079 9.60047 3.21079 9.56047L7.45079 8.94047C8.40079 8.80047 9.21079 8.21047 9.63079 7.35047L11.5208 3.51047C11.6408 3.26047 11.8708 3.23047 11.9708 3.23047H11.9908ZM11.9708 2.23047C11.4408 2.23047 10.9008 2.51047 10.6208 3.07047L8.73079 6.91047C8.45079 7.47047 7.92079 7.86047 7.30079 7.95047L3.06079 8.57047C1.83079 8.75047 1.34079 10.2605 2.23079 11.1305L5.30079 14.1205C5.75079 14.5605 5.95079 15.1905 5.85079 15.8005L5.13079 20.0205C4.96079 20.9905 5.73079 21.7805 6.61079 21.7805C6.84079 21.7805 7.08079 21.7305 7.31079 21.6005L11.1008 19.6105C11.3808 19.4605 11.6808 19.3905 11.9908 19.3905C12.3008 19.3905 12.6008 19.4605 12.8808 19.6105L16.6708 21.6005C16.9008 21.7205 17.1408 21.7805 17.3708 21.7805C18.2408 21.7805 19.0108 20.9905 18.8508 20.0205L18.1308 15.8005C18.0208 15.1805 18.2308 14.5505 18.6808 14.1205L21.7508 11.1305C22.6408 10.2605 22.1508 8.75047 20.9208 8.57047L16.6808 7.95047C16.0608 7.86047 15.5308 7.47047 15.2508 6.91047L13.3608 3.07047C13.0808 2.51047 12.5508 2.23047 12.0108 2.23047L11.9708 2.23047Z" fill="#2F3E39"/>
</g>
<defs>
<clipPath id="clip0_9703_163341">
<rect width="20.39" height="19.54" fill="white" transform="translate(1.80078 2.23047)"/>
</clipPath>
</defs>
</svg>
