<svg width="24" height="24" viewBox="0 0 24 24" fill="none" xmlns="http://www.w3.org/2000/svg">
<path d="M20.25 9.60001L12 3L3.75 9.60001C3.51613 9.78725 3.32731 10.0246 3.19749 10.2946C3.06768 10.5647 3.00019 10.8604 3 11.16V19C3 19.5304 3.21071 20.0391 3.58578 20.4142C3.96086 20.7893 4.46957 21 5 21H19C19.5304 21 20.0391 20.7893 20.4142 20.4142C20.7893 20.0391 21 19.5304 21 19V11.16C20.9998 10.8604 20.9323 10.5647 20.8025 10.2946C20.6727 10.0246 20.4839 9.78725 20.25 9.60001ZM6.84 20C7.01373 18.755 7.63172 17.6149 8.58002 16.7897C9.52831 15.9646 10.743 15.5101 12 15.5101C13.257 15.5101 14.4717 15.9646 15.42 16.7897C16.3683 17.6149 16.9863 18.755 17.16 20H6.84ZM9.5 12C9.5 11.337 9.7634 10.7011 10.2322 10.2322C10.7011 9.7634 11.337 9.5 12 9.5C12.663 9.5 13.2989 9.7634 13.7678 10.2322C14.2366 10.7011 14.5 11.337 14.5 12C14.4974 12.4379 14.3839 12.8679 14.17 13.25C13.8959 13.7291 13.4711 14.104 12.9616 14.3163C12.4521 14.5286 11.8867 14.5663 11.3536 14.4236C10.8204 14.2809 10.3495 13.9658 10.0142 13.5274C9.67888 13.089 9.4981 12.5519 9.5 12ZM20 19C20 19.2652 19.8946 19.5196 19.7071 19.7071C19.5196 19.8946 19.2652 20 19 20H18.17C18.0067 18.8458 17.5337 17.7574 16.8011 16.8506C16.0686 15.9437 15.1041 15.2524 14.01 14.85C14.6215 14.4242 15.0811 13.8144 15.322 13.1093C15.5629 12.4041 15.5725 11.6406 15.3494 10.9296C15.1262 10.2187 14.6821 9.59752 14.0814 9.15652C13.4808 8.71553 12.7551 8.47772 12.01 8.47772C11.2649 8.47772 10.5392 8.71553 9.93857 9.15652C9.33795 9.59752 8.89374 10.2187 8.67061 10.9296C8.44747 11.6406 8.45707 12.4041 8.69797 13.1093C8.93887 13.8144 9.3985 14.4242 10.01 14.85C8.91593 15.2524 7.95136 15.9437 7.21886 16.8506C6.48635 17.7574 6.01331 18.8458 5.85001 20H5C4.73478 20 4.48043 19.8946 4.29289 19.7071C4.10536 19.5196 4 19.2652 4 19V11.16C4.00069 11.0098 4.03521 10.8617 4.101 10.7267C4.16678 10.5916 4.26215 10.4731 4.38 10.38L12 4.28L19.62 10.38C19.7378 10.4731 19.8332 10.5916 19.899 10.7267C19.9648 10.8617 19.9993 11.0098 20 11.16V19Z" fill="#2F3E39"/>
</svg>
