<svg width="24" height="24" viewBox="0 0 24 24" fill="none" xmlns="http://www.w3.org/2000/svg">
<path d="M20.25 9.60001L12 3L3.75 9.60001C3.51613 9.78725 3.32732 10.0246 3.19751 10.2946C3.0677 10.5647 3.00019 10.8604 3 11.16V19C3 19.5304 3.21071 20.0391 3.58578 20.4142C3.96086 20.7893 4.46957 21 5 21H5.75C5.7386 19.6633 6.13958 18.3556 6.89832 17.2551C7.65705 16.1546 8.73664 15.3147 9.98999 14.85C9.37234 14.4235 8.90718 13.8108 8.66241 13.1013C8.41765 12.3917 8.40611 11.6225 8.62946 10.9059C8.85281 10.1894 9.29936 9.56295 9.90393 9.11813C10.5085 8.67332 11.2394 8.43338 11.99 8.43338C12.7406 8.43338 13.4715 8.67332 14.0761 9.11813C14.6806 9.56295 15.1272 10.1894 15.3506 10.9059C15.5739 11.6225 15.5623 12.3917 15.3176 13.1013C15.0728 13.8108 14.6076 14.4235 13.99 14.85C15.2433 15.3147 16.323 16.1546 17.0817 17.2551C17.8404 18.3556 18.2414 19.6633 18.23 21H19C19.5304 21 20.0391 20.7893 20.4142 20.4142C20.7893 20.0391 21 19.5304 21 19V11.16C20.9998 10.8604 20.9323 10.5647 20.8025 10.2946C20.6727 10.0246 20.4839 9.78725 20.25 9.60001Z" fill="#2F3E39"/>
</svg>
