<svg width="24" height="24" viewBox="0 0 24 24" fill="none" xmlns="http://www.w3.org/2000/svg">
<g clip-path="url(#clip0_9703_163311)">
<path d="M19.39 20H4.61002C4.26596 19.9987 3.92551 19.9296 3.60814 19.7968C3.29077 19.6639 3.00268 19.4698 2.76032 19.2256C2.51796 18.9813 2.32607 18.6918 2.19562 18.3734C2.06517 18.055 1.9987 17.7141 2.00002 17.37V6.63C1.9987 6.28594 2.06517 5.94499 2.19562 5.62662C2.32607 5.30824 2.51796 5.01866 2.76032 4.77444C3.00268 4.53023 3.29077 4.33613 3.60814 4.20325C3.92551 4.07037 4.26596 4.00131 4.61002 4H8.67002L11.2 6H19.5C19.8313 5.98885 20.1614 6.04591 20.4698 6.1676C20.7781 6.28929 21.0582 6.47302 21.2926 6.70743C21.527 6.94183 21.7107 7.22192 21.8324 7.53027C21.9541 7.83863 22.0112 8.16869 22 8.5V17.37C22.0013 17.7141 21.9349 18.055 21.8044 18.3734C21.674 18.6918 21.4821 18.9813 21.2397 19.2256C20.9974 19.4698 20.7093 19.6639 20.3919 19.7968C20.0745 19.9296 19.7341 19.9987 19.39 20ZM4.61002 5C4.39728 5.00131 4.18688 5.04451 3.99083 5.12714C3.79479 5.20976 3.61693 5.33018 3.46743 5.48154C3.31792 5.6329 3.19969 5.81223 3.1195 6.00928C3.0393 6.20633 2.9987 6.41726 3.00002 6.63V17.37C2.9987 17.5827 3.0393 17.7937 3.1195 17.9907C3.19969 18.1878 3.31792 18.3671 3.46743 18.5185C3.61693 18.6698 3.79479 18.7902 3.99083 18.8729C4.18688 18.9555 4.39728 18.9987 4.61002 19H19.39C19.6028 18.9987 19.8132 18.9555 20.0092 18.8729C20.2053 18.7902 20.3831 18.6698 20.5326 18.5185C20.6821 18.3671 20.8003 18.1878 20.8805 17.9907C20.9607 17.7937 21.0013 17.5827 21 17.37V8.5C21.0116 8.29998 20.9808 8.09976 20.9095 7.91251C20.8383 7.72525 20.7282 7.55519 20.5865 7.41351C20.4448 7.27184 20.2748 7.16175 20.0875 7.09048C19.9003 7.01921 19.7 6.98837 19.5 7H10.85L8.33002 5H4.61002Z" fill="#2F3E39"/>
<path d="M12.5 12.5V10H11.5V12.5H9V13.5H11.5V16H12.5V13.5H15V12.5H12.5Z" fill="#2F3E39"/>
</g>
<defs>
<clipPath id="clip0_9703_163311">
<rect width="20" height="16" fill="white" transform="translate(2 4)"/>
</clipPath>
</defs>
</svg>
