<svg width="24" height="24" viewBox="0 0 24 24" fill="none" xmlns="http://www.w3.org/2000/svg">
<path fill-rule="evenodd" clip-rule="evenodd" d="M4.25 22H17.75C18.2728 22 18.7931 21.8975 19.2807 21.6955C20.0116 21.3928 20.6363 20.8801 21.0759 20.2223C21.5154 19.5645 21.75 18.7911 21.75 18C21.75 16.9391 21.3286 15.9217 20.5784 15.1716C19.9471 14.5403 19.1265 14.1418 18.25 14.0314V4C18.25 3.46957 18.0393 2.96086 17.6642 2.58578C17.2891 2.21071 16.7804 2 16.25 2H4.25C3.71957 2 3.21086 2.21071 2.83578 2.58578C2.46071 2.96086 2.25 3.46957 2.25 4V20C2.25 20.5304 2.46071 21.0391 2.83578 21.4142C3.21086 21.7893 3.71957 22 4.25 22ZM17.25 14.0314V4C17.25 3.73478 17.1446 3.48044 16.9571 3.29291C16.7696 3.10537 16.5152 3 16.25 3H4.25C3.98478 3 3.73043 3.10537 3.54289 3.29291C3.35536 3.48044 3.25 3.73478 3.25 4V20C3.25 20.2652 3.35536 20.5196 3.54289 20.7071C3.73043 20.8946 3.98478 21 4.25 21H15.1042C15.0417 20.9448 14.9808 20.8876 14.9216 20.8284C14.3622 20.269 13.9812 19.5563 13.8269 18.7804C13.6725 18.0044 13.7517 17.2002 14.0545 16.4693C14.3572 15.7384 14.8699 15.1136 15.5277 14.6741C16.046 14.3278 16.636 14.1087 17.25 14.0314ZM15.25 6H5.25V7H15.25V6ZM19.4167 15.5056C18.9234 15.1759 18.3433 15 17.75 15C16.9543 15 16.1913 15.3161 15.6287 15.8787C15.0661 16.4413 14.75 17.2044 14.75 18C14.75 18.5933 14.9259 19.1734 15.2556 19.6667C15.5852 20.1601 16.0538 20.5446 16.602 20.7716C17.1501 20.9987 17.7533 21.0581 18.3353 20.9424C18.9172 20.8266 19.4517 20.5409 19.8713 20.1213C20.2909 19.7018 20.5766 19.1672 20.6923 18.5853C20.8081 18.0033 20.7487 17.4001 20.5216 16.8519C20.2946 16.3038 19.9101 15.8352 19.4167 15.5056ZM16.5609 16.8284L17.7509 15.6484L19.8709 17.7684L19.1609 18.4684L18.2509 17.5584V20.3484H17.2509V17.5584L16.3409 18.4684L15.6409 17.7784L15.6309 17.7684L16.5609 16.8284ZM5.25 9H15.25V10H5.25V9ZM11.25 12H5.25V13H11.25V12Z" fill="#2F3E39"/>
</svg>
