<svg width="24" height="24" viewBox="0 0 24 24" fill="none" xmlns="http://www.w3.org/2000/svg">
<g clip-path="url(#clip0_9703_163318)">
<path d="M4 15C3.73478 15 3.48044 14.8946 3.29291 14.7071C3.10537 14.5196 3 14.2652 3 14V13L5.38 10.62L7.62 12.87L12.11 8.39L15.98 12.61C16.2922 12.4218 16.6286 12.2771 16.98 12.18V6C16.98 5.46957 16.7693 4.96086 16.3942 4.58578C16.0192 4.21071 15.5104 4 14.98 4H4C3.46957 4 2.96086 4.21071 2.58578 4.58578C2.21071 4.96086 2 5.46957 2 6V14C2 14.5304 2.21071 15.0391 2.58578 15.4142C2.96086 15.7893 3.46957 16 4 16H14C14.0052 15.6622 14.0522 15.3263 14.14 15H4ZM3 6C3 5.73478 3.10537 5.48043 3.29291 5.29289C3.48044 5.10536 3.73478 5 4 5H15C15.2652 5 15.5196 5.10536 15.7071 5.29289C15.8946 5.48043 16 5.73478 16 6V11.11L12.14 6.89999L7.62 11.42L5.38 9.17L3 11.54V6Z" fill="#2F3E39"/>
<path d="M7.25 8.75C7.54667 8.75 7.83667 8.66203 8.08334 8.49721C8.33002 8.33238 8.5223 8.09811 8.63583 7.82402C8.74937 7.54993 8.77907 7.24834 8.72119 6.95737C8.66331 6.66639 8.52045 6.39912 8.31067 6.18935C8.10089 5.97957 7.8336 5.8367 7.54263 5.77882C7.25166 5.72095 6.95005 5.75065 6.67596 5.86418C6.40188 5.97771 6.16763 6.16997 6.00281 6.41664C5.83799 6.66331 5.75 6.95333 5.75 7.25C5.75 7.64782 5.90803 8.02935 6.18933 8.31065C6.47064 8.59196 6.85218 8.75 7.25 8.75ZM7.25 6.75C7.34889 6.75 7.44555 6.77932 7.52777 6.83426C7.61 6.8892 7.6741 6.96729 7.71194 7.05865C7.74979 7.15002 7.75968 7.25056 7.74039 7.34755C7.72109 7.44454 7.67347 7.53362 7.60355 7.60355C7.53362 7.67347 7.44452 7.72109 7.34753 7.74039C7.25054 7.75968 7.15002 7.74979 7.05865 7.71194C6.96729 7.6741 6.8892 7.61001 6.83426 7.52779C6.77932 7.44556 6.75 7.34889 6.75 7.25C6.75 7.11739 6.80269 6.99022 6.89645 6.89645C6.99022 6.80268 7.11739 6.75 7.25 6.75Z" fill="#2F3E39"/>
<path d="M18 13C18.5933 13 19.1734 13.1759 19.6667 13.5056C20.1601 13.8352 20.5446 14.3038 20.7716 14.8519C20.9987 15.4001 21.0581 16.0033 20.9423 16.5853C20.8266 17.1672 20.5409 17.7018 20.1213 18.1213C19.7017 18.5409 19.1672 18.8266 18.5853 18.9424C18.0033 19.0581 17.4001 18.9987 16.852 18.7716C16.3038 18.5446 15.8352 18.1601 15.5056 17.6667C15.1759 17.1734 15 16.5933 15 16C15 15.2044 15.3161 14.4413 15.8787 13.8787C16.4413 13.3161 17.2043 13 18 13ZM18 12C17.2089 12 16.4355 12.2346 15.7777 12.6741C15.1199 13.1136 14.6072 13.7384 14.3045 14.4693C14.0017 15.2002 13.9225 16.0044 14.0769 16.7804C14.2312 17.5563 14.6122 18.269 15.1716 18.8284C15.731 19.3878 16.4437 19.7688 17.2196 19.9231C17.9956 20.0775 18.7998 19.9983 19.5307 19.6955C20.2616 19.3928 20.8863 18.8801 21.3259 18.2223C21.7654 17.5645 22 16.7911 22 16C22 14.9391 21.5786 13.9217 20.8284 13.1716C20.0783 12.4214 19.0609 12 18 12Z" fill="#2F3E39"/>
<path d="M18.0009 13.6484L16.8109 14.8284L15.8809 15.7684L15.8909 15.7784L16.5909 16.4684L17.5009 15.5584V18.3484H18.5009V15.5584L19.4109 16.4684L20.1209 15.7684L18.0009 13.6484Z" fill="#2F3E39"/>
</g>
<defs>
<clipPath id="clip0_9703_163318">
<rect width="20" height="16" fill="white" transform="translate(2 4)"/>
</clipPath>
</defs>
</svg>
