<svg width="24" height="24" viewBox="0 0 24 24" fill="none" xmlns="http://www.w3.org/2000/svg">
<path d="M17 3C17.2652 3 17.5196 3.10537 17.7071 3.29291C17.8946 3.48044 18 3.73478 18 4V20C18 20.2652 17.8946 20.5196 17.7071 20.7071C17.5196 20.8946 17.2652 21 17 21H7C6.73478 21 6.48043 20.8946 6.29289 20.7071C6.10536 20.5196 6 20.2652 6 20V4C6 3.73478 6.10536 3.48044 6.29289 3.29291C6.48043 3.10537 6.73478 3 7 3H17ZM17 2H7C6.46957 2 5.96086 2.21071 5.58578 2.58578C5.21071 2.96086 5 3.46957 5 4V20C5 20.5304 5.21071 21.0391 5.58578 21.4142C5.96086 21.7893 6.46957 22 7 22H17C17.5304 22 18.0391 21.7893 18.4142 21.4142C18.7893 21.0391 19 20.5304 19 20V4C19 3.46957 18.7893 2.96086 18.4142 2.58578C18.0391 2.21071 17.5304 2 17 2Z" fill="#2F3E39"/>
<path d="M11.1796 13.7204L8.63965 11.0604L9.35965 10.3704L11.1796 12.2804L14.6396 8.65039L15.3596 9.35039L11.1796 13.7204Z" fill="#2F3E39"/>
</svg>
