<svg width="24" height="24" viewBox="0 0 24 24" fill="none" xmlns="http://www.w3.org/2000/svg">
<g clip-path="url(#clip0_9703_163370)">
<path d="M19.08 5.16988L17.67 3.75988C17.08 3.16988 16.13 3.16988 15.55 3.75988L14.49 4.81988L18.03 8.35988L19.09 7.29988C19.68 6.70988 19.68 5.75988 19.09 5.17988L19.08 5.16988Z" fill="white"/>
<path d="M2.46008 16.8395L2.16008 20.1295C2.13008 20.4395 2.39008 20.6995 2.70008 20.6695L5.99008 20.3695L15.9001 10.4795L12.3601 6.93945L2.46008 16.8395Z" fill="#FCB707"/>
<path d="M13.7813 5.52629L13.0742 6.2334L16.6098 9.76893L17.3169 9.06183L13.7813 5.52629Z" fill="#FCB707"/>
<path d="M14.4813 4.81242L13.7742 5.51953L17.3097 9.05507L18.0168 8.34796L14.4813 4.81242Z" fill="#FFF5D6"/>
<path d="M13.0711 6.24114L12.364 6.94824L15.8995 10.4838L16.6067 9.77667L13.0711 6.24114Z" fill="#FFF5D6"/>
<path d="M2.16008 20.1307C2.13008 20.4407 2.39008 20.7007 2.70008 20.6707L3.40008 20.6107L2.23008 19.4307L2.16008 20.1307Z" fill="#2F3E39"/>
<path d="M21.8401 19.6807H7.84009V20.6807H21.8401V19.6807Z" fill="#2F3E39"/>
</g>
<defs>
<clipPath id="clip0_9703_163370">
<rect width="19.68" height="17.36" fill="white" transform="translate(2.16016 3.32031)"/>
</clipPath>
</defs>
</svg>
