<svg width="24" height="24" viewBox="0 0 24 24" fill="none" xmlns="http://www.w3.org/2000/svg">
<g clip-path="url(#clip0_9703_163350)">
<path d="M19 5.0397L18.75 4.7897C18.5643 4.60375 18.3437 4.45624 18.1009 4.35559C17.8581 4.25494 17.5978 4.20312 17.335 4.20312C17.0722 4.20312 16.8119 4.25494 16.5691 4.35559C16.3263 4.45624 16.1057 4.60375 15.92 4.7897L4.59 16.1297C4.40283 16.3158 4.25434 16.537 4.15308 16.7807C4.05182 17.0244 3.99979 17.2858 4 17.5497V19.7997H6.25C6.51391 19.7999 6.77525 19.7479 7.01897 19.6466C7.26268 19.5454 7.48394 19.3969 7.67 19.2097L17.6 9.27972L18.3 8.57971L19.01 7.86972C19.1953 7.68332 19.342 7.46221 19.4418 7.21906C19.5416 6.9759 19.5925 6.71547 19.5916 6.45264C19.5906 6.18981 19.5379 5.92973 19.4364 5.68729C19.3349 5.44485 19.1866 5.22479 19 5.0397ZM7 18.5097C6.90656 18.6024 6.79574 18.6757 6.67391 18.7255C6.55207 18.7753 6.42161 18.8005 6.29 18.7997H5V17.5497C4.99924 17.4181 5.02446 17.2876 5.07423 17.1658C5.12399 17.044 5.19732 16.9332 5.29 16.8397L15.22 6.9097L16.89 8.57971L7 18.5097ZM18.34 7.1597L17.64 7.86972L15.97 6.19971L16.68 5.49973C16.8674 5.31347 17.1208 5.20892 17.385 5.20892C17.6492 5.20892 17.9026 5.31347 18.09 5.49973L18.34 5.74973C18.521 5.94232 18.6185 6.19876 18.611 6.46298C18.6035 6.7272 18.4917 6.97767 18.3 7.1597H18.34Z" fill="#2F3E39"/>
<path d="M20 18.8018H10V19.8018H20V18.8018Z" fill="#2F3E39"/>
</g>
<defs>
<clipPath id="clip0_9703_163350">
<rect width="16" height="15.6" fill="white" transform="translate(4 4.2002)"/>
</clipPath>
</defs>
</svg>
